<?xml version="1.0" encoding="UTF-8"?>
<svg version="1.1" xmlns="http://www.w3.org/2000/svg" width="512" height="512">
<path d="M0 0 C0.92135742 0.18191895 1.84271484 0.36383789 2.79199219 0.55126953 C42.8429122 8.56288546 79.55149347 28.04758368 110 55 C110.89332031 55.78246094 111.78664063 56.56492188 112.70703125 57.37109375 C122.00225596 65.60971841 130.3040213 74.24655153 138 84 C138.79277344 84.97582031 139.58554687 85.95164062 140.40234375 86.95703125 C171.38247791 125.86573055 188.71605526 175.88005763 189.3125 225.5 C189.33022461 226.40290771 189.34794922 227.30581543 189.36621094 228.23608398 C189.36524414 229.07598877 189.36427734 229.91589355 189.36328125 230.78125 C189.36775269 231.8959668 189.36775269 231.8959668 189.37231445 233.03320312 C188.88683847 235.59778968 188.01225244 236.371148 186 238 C184.12068176 238.36076355 184.12068176 238.36076355 181.98754883 238.34057617 C181.175802 238.34021362 180.36405518 238.33985107 179.52770996 238.33947754 C178.67938599 238.32412964 177.83106201 238.30878174 176.95703125 238.29296875 C175.78207092 238.28843689 175.78207092 238.28843689 174.58337402 238.28381348 C171.65961516 238.26812701 168.73604424 238.22624288 165.8125 238.1875 C159.274375 238.125625 152.73625 238.06375 146 238 C146 258.79 146 279.58 146 301 C148.64 301.33 151.28 301.66 154 302 C165.34394995 305.93121539 173.88032703 313.43935853 179.5 324 C185.52977056 337.30296838 185.03576919 349.56532062 180.2265625 363.19140625 C175.75498206 373.34476551 166.82010519 381.20970479 157 386 C144.46886356 390.65347242 132.27419587 390.16808247 120 385 C115.0025065 382.28195657 109.72574579 379.39540598 106 375 C106 374.34 106 373.68 106 373 C105.34 373 104.68 373 104 373 C103.88527344 374.31484375 103.77054687 375.6296875 103.65234375 376.984375 C103.12932159 381.62902934 102.06936586 385.83533412 100.5625 390.25 C100.30299561 391.01231934 100.04349121 391.77463867 99.77612305 392.56005859 C91.87915947 414.89905416 79.87594284 433.5711676 64 451 C63.32582031 451.74636719 62.65164063 452.49273437 61.95703125 453.26171875 C37.46211067 479.01011075 -0.30296983 496.6738485 -35.85131836 498.16113281 C-39.44206363 498.19893707 -43.03236673 498.23112132 -46.62329102 498.24023438 C-48.90093872 498.24984572 -51.17764487 498.28089299 -53.45507812 498.3125 C-95.03141597 498.61322741 -132.56441301 479.36618963 -162.125 451.1875 C-178.68974681 434.03115509 -190.75779449 412.98118921 -198.4375 390.5 C-198.68467773 389.78279785 -198.93185547 389.0655957 -199.18652344 388.32666016 C-200.84407901 383.22276043 -201.54218554 378.34643097 -202 373 C-202.46148437 373.43570312 -202.92296875 373.87140625 -203.3984375 374.3203125 C-214.077796 384.07103113 -225.461622 389.79071377 -240.21484375 389.28125 C-253.09457963 387.98063151 -263.04503897 382.91224229 -271.95703125 373.55859375 C-280.35657686 363.03908634 -283.19892818 351.20319658 -282 338 C-279.24369225 324.32808711 -272.4134692 314.60809674 -261.25 306.42578125 C-255.67377802 302.89223781 -250.60365033 301 -244 301 C-244 280.21 -244 259.42 -244 238 C-257.0291175 238.11868166 -257.0291175 238.11868166 -270.05786133 238.27026367 C-271.690912 238.27902527 -273.32396922 238.28666998 -274.95703125 238.29296875 C-275.80535522 238.30831665 -276.6536792 238.32366455 -277.52770996 238.33947754 C-278.7453302 238.34002136 -278.7453302 238.34002136 -279.98754883 238.34057617 C-281.04344963 238.35056892 -281.04344963 238.35056892 -282.12068176 238.36076355 C-284.57449953 237.88971613 -285.46240201 236.92782388 -287 235 C-287.38818359 233.11254883 -287.38818359 233.11254883 -287.3984375 230.95703125 C-287.40464111 230.14306885 -287.41084473 229.32910645 -287.41723633 228.49047852 C-287.40329834 227.60674561 -287.38936035 226.7230127 -287.375 225.8125 C-287.36557373 224.8855835 -287.35614746 223.95866699 -287.34643555 223.00366211 C-286.33264514 174.60425779 -269.05035624 125.92600722 -239 88 C-238.36835938 87.17628906 -237.73671875 86.35257812 -237.0859375 85.50390625 C-231.4735506 78.28633051 -225.28681418 71.62730358 -219 65 C-218.28714844 64.24460937 -217.57429688 63.48921875 -216.83984375 62.7109375 C-211.61394928 57.32408118 -205.87981261 52.6525862 -200 48 C-199.03449219 47.21753906 -198.06898438 46.43507812 -197.07421875 45.62890625 C-183.17536134 34.59105888 -168.09798427 25.4461324 -152 18 C-151.3709375 17.70287109 -150.741875 17.40574219 -150.09375 17.09960938 C-131.84771314 8.51873753 -112.76179895 2.84970109 -93 -1 C-91.81204834 -1.2477417 -91.81204834 -1.2477417 -90.60009766 -1.50048828 C-61.72529711 -7.35046359 -28.70805735 -6.00923732 0 0 Z " fill="#294368" transform="translate(305,9)"/>
<path d="M0 0 C37.62 0 75.24 0 114 0 C114.103125 17.03625 114.20625 34.0725 114.3125 51.625 C114.35802002 56.99990723 114.40354004 62.37481445 114.45043945 67.91259766 C114.47302246 74.48706055 114.47302246 74.48706055 114.47721863 77.56698608 C114.48488567 79.71344181 114.50244888 81.85987628 114.52787781 84.00619507 C114.56451417 87.26183353 114.56952906 90.51615874 114.56762695 93.77197266 C114.58561749 94.7246937 114.60360804 95.67741474 114.62214375 96.65900612 C114.5880441 101.02329642 114.44123409 104.04363136 111.65202332 107.52597046 C109 110 109 110 106 111.8125 C101.80584408 114.87073869 99.70951038 118.11152776 98 123 C96.84913947 130.52562714 97.59434803 137.65779772 102 144 C104.49918015 146.57549099 107.13742921 148.83917593 110 151 C108.73926126 154.27756052 107.34670898 157.37144083 105.671875 160.45703125 C105.2092627 161.30950439 104.74665039 162.16197754 104.27001953 163.0402832 C103.76841309 163.95511475 103.26680664 164.86994629 102.75 165.8125 C102.22132324 166.77953857 101.69264648 167.74657715 101.14794922 168.74291992 C96.69720321 176.83370784 92.06608838 184.81149412 87.38525391 192.77075195 C80.74598786 204.0814461 74.36744132 215.53451081 68 227 C62.13360199 223.96010147 56.99976596 220.70126073 52.0625 216.3125 C51.46405273 215.787771 50.86560547 215.26304199 50.24902344 214.72241211 C28.86125951 195.80048438 14.64515807 173.67610512 5.75 146.625 C5.51579346 145.93180664 5.28158691 145.23861328 5.0402832 144.52441406 C-0.44562734 127.01828145 -0.4073194 109.37569939 -0.29296875 91.2109375 C-0.28736117 88.56865685 -0.28309658 85.92637304 -0.28010559 83.28408813 C-0.27086783 77.09035675 -0.2463692 70.89678868 -0.21605712 64.70312846 C-0.17892087 56.94274224 -0.16274446 49.1823282 -0.14648438 41.421875 C-0.11746392 27.61445688 -0.05733615 13.80739389 0 0 Z " fill="#FDD7B6" transform="translate(112,246)"/>
<path d="M0 0 C37.62 0 75.24 0 114 0 C114.10043263 14.37079398 114.20083852 28.7406237 114.25126934 43.1114912 C114.27878564 50.83173025 114.31349948 58.551694 114.37719727 66.27172852 C114.43312987 73.05398279 114.46155641 79.83593936 114.47438622 86.61841011 C114.48351011 89.18513218 114.50132018 91.75184098 114.52865028 94.31843376 C114.96354332 136.91679269 102.30279771 174.67659727 72.43798828 205.55517578 C67.29025103 210.72738445 61.90922403 215.70861457 56 220 C52.6674886 218.62035971 51.25723349 217.32021258 49.4765625 214.203125 C48.79243286 213.02991699 48.79243286 213.02991699 48.09448242 211.83300781 C47.60955322 210.98061523 47.12462402 210.12822266 46.625 209.25 C45.5534338 207.41511501 44.47911431 205.58183575 43.40234375 203.75 C42.56485596 202.32300781 42.56485596 202.32300781 41.71044922 200.8671875 C38.96576993 196.26634342 36.08112624 191.7581414 33.1875 187.25 C28.01602822 179.17443063 22.89251784 171.07095579 17.8125 162.9375 C17.17658936 161.92010742 16.54067871 160.90271484 15.88549805 159.85449219 C12.54972125 154.50966288 12.54972125 154.50966288 11 152 C10.44143311 151.1344751 9.88286621 150.2689502 9.30737305 149.37719727 C8 147 8 147 8 144 C9.64429829 142.31126121 11.31384218 140.64694485 13 139 C17.07633506 133.32433731 16.96272144 127.75509541 16 121 C13.39895779 114.43827989 8.49663043 110.40716025 2.85546875 106.41015625 C1 105 1 105 0 103 C-0.09163082 101.61885993 -0.12193843 100.23338794 -0.12025452 98.84921265 C-0.12163201 97.98161505 -0.12300951 97.11401745 -0.12442875 96.22012901 C-0.12083064 95.2623839 -0.11723253 94.30463879 -0.11352539 93.31787109 C-0.11364593 92.2966749 -0.11376646 91.27547871 -0.11389065 90.22333717 C-0.11314225 86.90668205 -0.10551732 83.59008262 -0.09765625 80.2734375 C-0.0961866 78.23022488 -0.09516603 76.18701189 -0.09460449 74.14379883 C-0.08935423 66.55419349 -0.07539312 58.9645962 -0.0625 51.375 C-0.041875 34.42125 -0.02125 17.4675 0 0 Z " fill="#FDD7B6" transform="translate(286,247)"/>
<path d="M0 0 C0.66 0 1.32 0 2 0 C3.10644531 1.48681641 3.10644531 1.48681641 4.328125 3.6015625 C4.79065674 4.39014648 5.25318848 5.17873047 5.72973633 5.99121094 C6.23142334 6.86036133 6.73311035 7.72951172 7.25 8.625 C11.63991203 16.08871895 16.13815869 23.46093869 20.8125 30.75 C25.98360273 38.82580866 31.10747916 46.92903942 36.1875 55.0625 C36.82341064 56.07989258 37.45932129 57.09728516 38.11450195 58.14550781 C41.45027875 63.49033712 41.45027875 63.49033712 43 66 C43.55856689 66.8861499 44.11713379 67.7722998 44.69262695 68.68530273 C46 71 46 71 46 73 C13.32206834 90.12115036 -22.35450484 98.73767202 -59 90 C-60.24394531 89.7215625 -61.48789063 89.443125 -62.76953125 89.15625 C-69.83714455 87.43930101 -76.51610407 85.16366942 -83.25 82.4375 C-83.97767578 82.14456055 -84.70535156 81.85162109 -85.45507812 81.54980469 C-88.9157587 80.09500674 -91.46615615 78.75625474 -94 76 C-85.60140911 60.81514029 -77.15092428 45.66609607 -68.50439453 30.62060547 C-65.74511878 25.81403846 -62.99854708 21.00020716 -60.25 16.1875 C-59.23442524 14.41012754 -58.21880516 12.63278098 -57.203125 10.85546875 C-56.77676758 10.10934326 -56.35041016 9.36321777 -55.91113281 8.59448242 C-55.61045898 8.06830322 -55.30978516 7.54212402 -55 7 C-51.5753466 8.14155113 -50.886659 9.11467629 -48.6875 11.875 C-44.57655248 16.71293613 -40.37014773 19.27611958 -34 20 C-24.15440797 20.7221275 -15.55634551 19.06460162 -7.7578125 12.75 C-4.08556301 9.09407162 -1.63100002 4.89300005 0 0 Z " fill="#AFB4C9" transform="translate(284,402)"/>
<path d="M0 0 C11.88 0 23.76 0 36 0 C36.0093457 3.13363037 36.01869141 6.26726074 36.02832031 9.49584961 C36.06213297 19.86554881 36.11770602 30.23504991 36.18390274 40.60459042 C36.223361 46.88980571 36.25555781 53.17488124 36.27099609 59.46020508 C36.2861732 65.52931994 36.32063842 71.59805053 36.36830902 77.66699409 C36.38311177 79.97891456 36.39104038 82.29088989 36.39188385 84.60285759 C36.39425848 87.84885187 36.42137983 91.09378846 36.45410156 94.33959961 C36.4490712 95.28906967 36.44404083 96.23853973 36.43885803 97.21678162 C36.54267526 103.90166438 37.70140257 110.44801896 42.41168594 115.52012539 C43.87643026 116.76077352 45.43799548 117.88428249 47 119 C51.90909091 122.81818182 51.90909091 122.81818182 53 125 C53.47059708 129.15694086 53.61982659 131.20584718 51 134.5625 C49.38141885 135.87759719 47.74458744 137.17600707 46.02734375 138.359375 C39.50069075 142.89753372 37.35626257 147.36275039 34.625 154.6875 C32.23538548 159.5586373 29.06184638 162.03780502 24.1875 164.3125 C18.65249048 165.50632558 13.41605976 166.03573928 8.1875 163.5 C4.19802047 160.89856519 2.81271095 157.25351035 1 153 C-2.00540219 146.90297507 -5.4272178 143.6465806 -11.125 140 C-15.59325044 136.89165187 -15.59325044 136.89165187 -17 134 C-17.52603637 130.89054059 -17.58177483 128.10466378 -17 125 C-15 122.375 -15 122.375 -12 120 C-10.61533371 118.86586672 -9.24086803 117.71920374 -7.875 116.5625 C-7.21242187 116.02753906 -6.54984375 115.49257813 -5.8671875 114.94140625 C-0.56301155 109.42639486 -0.55704682 103.71390236 -0.56762695 96.49658203 C-0.5574353 95.45207382 -0.54724365 94.40756561 -0.53674316 93.33140564 C-0.50662753 89.89015326 -0.49734915 86.44917932 -0.48828125 83.0078125 C-0.47143356 80.61741207 -0.4532832 78.22702049 -0.43388367 75.8366394 C-0.38638767 69.55341356 -0.35657549 63.27022362 -0.33044434 56.98687744 C-0.30063698 50.57190867 -0.25410718 44.15706359 -0.20898438 37.7421875 C-0.12295557 25.16150881 -0.05715407 12.58084304 0 0 Z " fill="#EDC396" transform="translate(238,246)"/>
<path d="M0 0 C37.62 0 75.24 0 114 0 C114 0.33 114 0.66 114 1 C84.3 1 54.6 1 24 1 C24 7.93 24 14.86 24 22 C25.60875 20.906875 27.2175 19.81375 28.875 18.6875 C34.10498325 15.34705908 38.98559296 13.39371286 45 12 C45.59425781 11.82082031 46.18851563 11.64164062 46.80078125 11.45703125 C60.14818181 8.68323753 72.87903538 11.69014266 84.49609375 18.453125 C86.47832311 19.85961913 88.22899079 21.3369304 90 23 C91.02673828 23.928125 91.02673828 23.928125 92.07421875 24.875 C96.42827604 28.99566051 100.69891483 33.37512514 103 39 C102.92859991 42.85560463 102.72658883 44.27341117 100 47 C97.12890625 47.41796875 97.12890625 47.41796875 94 47 C91.83984375 44.98828125 91.83984375 44.98828125 89.9375 42.3125 C89.25558594 41.39726562 88.57367188 40.48203125 87.87109375 39.5390625 C86.94490234 38.28222656 86.94490234 38.28222656 86 37 C79.00206359 29.12732154 70.32972006 24.65814215 59.82421875 23.71484375 C48.79882668 23.41686018 39.49252265 25.71209049 31 33 C30.50389725 33.3744072 30.00779449 33.74881439 29.49665833 34.13456726 C25.84259694 37.46484174 24.64201924 40.40730876 24.32894421 45.35874653 C24.22468652 49.08678216 24.2545638 52.80651296 24.30859375 56.53515625 C24.31217971 58.17638319 24.31352641 59.81761637 24.3127594 61.45884705 C24.31744577 64.90305092 24.34220994 68.34631592 24.38256836 71.7902832 C24.43294311 76.13729277 24.44475386 80.4832638 24.44312859 84.83052921 C24.44663476 123.7535056 28.58670378 160.88518971 53 193 C53.98419922 194.29550781 53.98419922 194.29550781 54.98828125 195.6171875 C60.58300205 202.76539388 66.5375192 209.62330434 73 216 C71.74194623 220.50802601 70.09592835 223.4912812 67 227 C37.01737287 206.77310838 17.00046669 180.83884473 5.75 146.625 C5.51579346 145.93180664 5.28158691 145.23861328 5.0402832 144.52441406 C-0.44562734 127.01828145 -0.4073194 109.37569939 -0.29296875 91.2109375 C-0.28736117 88.56865685 -0.28309658 85.92637304 -0.28010559 83.28408813 C-0.27086783 77.09035675 -0.2463692 70.89678868 -0.21605712 64.70312846 C-0.17892087 56.94274224 -0.16274446 49.1823282 -0.14648438 41.421875 C-0.11746392 27.61445688 -0.05733615 13.80739389 0 0 Z " fill="#D3B6A0" transform="translate(112,246)"/>
<path d="M0 0 C0.8765625 0.12117188 1.753125 0.24234375 2.65625 0.3671875 C34.78166247 5.22566037 64.35183526 21.08762596 87.48144531 43.53271484 C88.91710362 44.91990238 90.37589527 46.28303181 91.8359375 47.64453125 C104.05207487 59.31811811 113.32618743 73.01008447 121 88 C121.31807617 88.61697754 121.63615234 89.23395508 121.96386719 89.86962891 C132.74925015 111.07412008 138.33560534 133.20931053 138 157 C134.37 157 130.74 157 127 157 C126.82984375 155.53691406 126.6596875 154.07382813 126.484375 152.56640625 C122.19809967 116.93806411 110.80072064 85.54451193 85.75 59.05859375 C84 57 84 57 83 54 C81.6839877 53.29976157 80.34842842 52.63558086 79 52 C77.60546875 50.66015625 77.60546875 50.66015625 76.1875 49.0625 C58.44806078 30.94722521 31.68816839 17.84715348 7 13 C5.85015625 12.72414063 4.7003125 12.44828125 3.515625 12.1640625 C-33.78404156 3.79318024 -73.34214755 12.7725803 -105.7578125 31.9375 C-114.90690334 37.75764453 -123.14204013 44.54993423 -131 52 C-131.95777344 52.89332031 -132.91554687 53.78664062 -133.90234375 54.70703125 C-163.18566883 82.56363557 -174.66719346 118.90626825 -179 158 C-182.63 158 -186.26 158 -190 158 C-191.61235418 115.5413399 -169.80637915 76.31388158 -142.0703125 45.8828125 C-106.06671309 8.50108488 -50.77884954 -8.75072407 0 0 Z " fill="#EECA7C" transform="translate(282,77)"/>
<path d="M0 0 C8.07825177 4.54559935 12.97683411 12.56958787 17.4921875 20.40234375 C17.894375 21.09328125 18.2965625 21.78421875 18.7109375 22.49609375 C24.41329709 33.03681905 25.55732154 44.4322966 25.51171875 56.19921875 C25.51030884 56.89321777 25.50889893 57.5872168 25.50744629 58.30224609 C25.50378872 60.00228232 25.49818478 61.70231417 25.4921875 63.40234375 C18.8169841 63.4276132 12.14179293 63.44517643 5.46655273 63.45727539 C3.19376159 63.462317 0.9209737 63.46915012 -1.35180664 63.4777832 C-4.61084801 63.48985636 -7.86984667 63.49557362 -11.12890625 63.5 C-12.15181259 63.50516129 -13.17471893 63.51032257 -14.22862244 63.51564026 C-15.16952225 63.51571579 -16.11042206 63.51579132 -17.07983398 63.51586914 C-17.91256332 63.51808975 -18.74529266 63.52031036 -19.60325623 63.52259827 C-21.5078125 63.40234375 -21.5078125 63.40234375 -22.5078125 62.40234375 C-22.6109375 61.14421875 -22.7140625 59.88609375 -22.8203125 58.58984375 C-23.80175665 49.2066429 -27.43297402 40.96093938 -32.140625 32.875 C-33.48765272 30.43880415 -34.52979596 28.00573065 -35.5078125 25.40234375 C-34.755 24.83128906 -34.0021875 24.26023438 -33.2265625 23.671875 C-26.00766277 18.16984049 -18.91349379 12.53277831 -11.890625 6.7824707 C-10.63449573 5.75462845 -9.37420797 4.73183711 -8.10888672 3.71533203 C-6.81783347 2.65658175 -5.57748419 1.53617601 -4.35546875 0.3984375 C-2.5078125 -0.59765625 -2.5078125 -0.59765625 0 0 Z " fill="#ECC97C" transform="translate(348.5078125,171.59765625)"/>
<path d="M0 0 C3.93214301 1.58939426 6.33020346 4.16342502 9.25 7.1875 C13.07282786 11.10213693 16.98305581 14.81889939 21.1484375 18.3671875 C23.74717391 20.6589002 26.15074969 23.12380084 28.5546875 25.6171875 C29.97109777 27.10854485 29.97109777 27.10854485 32 28 C30.33537952 32.4761565 28.06803786 36.27539757 25.53515625 40.3046875 C22.2913682 45.99988789 20.48625033 51.48531058 19.375 57.875 C18.11802326 64.88197674 18.11802326 64.88197674 17 66 C15.58774954 66.0928726 14.17091066 66.11746772 12.75561523 66.11352539 C11.85475693 66.11344986 10.95389862 66.11337433 10.02574158 66.11329651 C9.04658279 66.10813522 8.06742401 66.10297394 7.05859375 66.09765625 C6.06118668 66.0962413 5.0637796 66.09482635 4.03614807 66.09336853 C0.83656876 66.08775114 -2.36294169 66.07519571 -5.5625 66.0625 C-7.72591045 66.05748724 -9.88932199 66.05292395 -12.05273438 66.04882812 C-17.36851325 66.03777607 -22.68425171 66.02102104 -28 66 C-28.01309018 64.42621076 -28.02234461 62.85238937 -28.0300293 61.27856445 C-28.03560349 60.40214798 -28.04117767 59.52573151 -28.04692078 58.62275696 C-27.97756649 54.74602139 -27.46626719 51.00390315 -26.8125 47.1875 C-26.68012939 46.41341797 -26.54775879 45.63933594 -26.41137695 44.84179688 C-22.98514966 26.23513188 -13.34736773 12.91680748 0 0 Z " fill="#EBC87C" transform="translate(168,169)"/>
<path d="M0 0 C1.21171875 -0.00386719 2.4234375 -0.00773437 3.671875 -0.01171875 C15.49000624 0.00088054 27.15095731 0.66686897 38.8125 2.625 C39.63041016 2.75519531 40.44832031 2.88539062 41.29101562 3.01953125 C44.5296635 3.54644356 47.50327635 4.08442545 50.625 5.125 C49.93997382 10.68711473 48.76039355 16.01053515 47.375 21.4375 C47.15755127 22.29891602 46.94010254 23.16033203 46.71606445 24.04785156 C44.49331938 32.77943816 42.08492479 41.45769053 39.625 50.125 C32.49106248 49.60962048 25.60687183 48.68494099 18.625 47.125 C17.86266989 38.92995132 20.47216636 30.12692498 24.9375 23.25 C26.87639954 20.19293462 26.87639954 20.19293462 26.8125 16.5625 C24.89677652 11.01698466 21.38426783 8.68584678 16.39453125 5.86328125 C9.65736573 2.73099386 2.96282286 2.05184341 -4.375 3.125 C-9.32140982 4.94395593 -14.23984529 7.81416227 -17.375 12.125 C-18.48845957 15.11742258 -18.78585729 17.0759583 -17.60546875 20.08984375 C-16.88434657 21.58340393 -16.16018987 23.0755014 -15.43359375 24.56640625 C-12.44433774 31.7913608 -12.375 39.41275315 -12.375 47.125 C-20.295 48.115 -28.215 49.105 -36.375 50.125 C-38.93329617 42.45011148 -41.07271589 34.82709734 -43.01928711 26.99389648 C-43.56601354 24.79839059 -44.12157408 22.60524212 -44.67773438 20.41210938 C-45.02917787 19.00794555 -45.38010795 17.60365311 -45.73046875 16.19921875 C-46.04653076 14.93682373 -46.36259277 13.67442871 -46.68823242 12.3737793 C-47.375 9.125 -47.375 9.125 -47.375 5.125 C-44.1271185 4.46821227 -40.8763813 3.82671714 -37.625 3.1875 C-36.72394531 3.00509766 -35.82289063 2.82269531 -34.89453125 2.63476562 C-23.27606224 0.36875217 -11.81519649 -0.03746891 0 0 Z " fill="#4BA786" transform="translate(254.375,16.875)"/>
<path d="M0 0 C1.36898437 0.61875 1.36898437 0.61875 2.765625 1.25 C17.41901735 8.45390238 27.4554936 20.7874347 33 36 C34.26451255 40.06089174 35 43.71075346 35 48 C29.06 48 23.12 48 17 48 C16.62875 46.39125 16.2575 44.7825 15.875 43.125 C12.97091657 32.56716399 7.19608592 23.64604584 -2.3125 18.05078125 C-12.55050449 12.5975158 -23.35062298 9.96279814 -34.90234375 12.68359375 C-46.1944254 16.50041237 -55.73132348 23.27825017 -61.57421875 33.84765625 C-63.66844668 38.3061415 -65.02645724 42.1322862 -66 47 C-71.28 47 -76.56 47 -82 47 C-82 33.97114749 -75.11728312 22.15667812 -66.1328125 13.03515625 C-65.07707031 12.02775391 -65.07707031 12.02775391 -64 11 C-63.46117187 10.44183594 -62.92234375 9.88367188 -62.3671875 9.30859375 C-47.0414247 -5.43956493 -18.95055291 -9.41642381 0 0 Z " fill="#EFCB7C" transform="translate(280,187)"/>
<path d="M0 0 C3.74981608 3.60844061 7.01102839 7.38299274 10.1875 11.5 C10.65873291 12.10513428 11.12996582 12.71026855 11.61547852 13.33374023 C13.08143343 15.21909871 14.54174908 17.10867792 16 19 C16.46728516 19.60602051 16.93457031 20.21204102 17.41601562 20.83642578 C19.55102488 23.60786106 21.68215942 26.3821292 23.80859375 29.16015625 C25.26446354 31.04681817 26.77857473 32.88998476 28.34765625 34.68359375 C28.89292969 35.44800781 29.43820313 36.21242187 30 37 C28.86728288 40.39815137 27.8090686 41.28644916 25.125 43.5625 C24.42632812 44.16191406 23.72765625 44.76132813 23.0078125 45.37890625 C21 47 21 47 18 49 C8.92368093 42.41697807 3.96702785 35.9340557 -1 26 C-5.41561876 23.79219062 -10.82236942 24.73691163 -15.4375 26 C-21.79534275 28.36494151 -26.89420876 32.58091961 -30.453125 38.359375 C-33.44873499 44.98347033 -34.20194534 52.04762372 -32.48046875 59.140625 C-30.06473994 62.17462741 -26.52226395 62.79157081 -22.9375 63.875 C-16.18794111 66.06871279 -10.63873589 68.60549222 -5 73 C-4.01 73.66 -3.02 74.32 -2 75 C-3.54385129 79.14032846 -5.51028938 82.93553053 -7.625 86.8125 C-7.94984375 87.40998047 -8.2746875 88.00746094 -8.609375 88.62304688 C-9.40379151 90.08337135 -10.20155376 91.54187491 -11 93 C-15.67938046 92.4095321 -19.49049721 91.10423844 -23.796875 89.19921875 C-24.74738739 88.78274834 -24.74738739 88.78274834 -25.71710205 88.35786438 C-27.73094745 87.47411866 -29.74057666 86.58124857 -31.75 85.6875 C-34.3894815 84.52213554 -37.03055698 83.36041367 -39.671875 82.19921875 C-40.30460327 81.92028778 -40.93733154 81.64135681 -41.5892334 81.35397339 C-46.68084548 79.11756331 -51.81489847 77.00918851 -57 75 C-55.44878932 69.50025305 -52.8661493 64.89539481 -50 60 C-49.51160645 59.16275391 -49.02321289 58.32550781 -48.52001953 57.46289062 C-36.00944028 36.31164975 -19.53509255 15.10807517 0 0 Z " fill="#4BA786" transform="translate(109,70)"/>
<path d="M0 0 C5.60753891 3.99250884 10.60944893 8.28587379 15.4375 13.1875 C16.09073242 13.8475 16.74396484 14.5075 17.41699219 15.1875 C22.6426642 20.52457702 27.47964308 26.04873874 32 32 C32.42732422 32.55623047 32.85464844 33.11246094 33.29492188 33.68554688 C40.22570833 42.73980833 46.36831506 52.08901205 52 62 C52.62390625 63.09441406 53.2478125 64.18882812 53.890625 65.31640625 C58 72.68063668 58 72.68063668 58 75 C57.29617188 75.29656494 56.59234375 75.59312988 55.8671875 75.89868164 C53.76620304 76.78443447 51.6654769 77.67080017 49.56494141 78.55761719 C47.18232122 79.56340207 44.79917997 80.56795346 42.41552734 81.57128906 C37.20331104 83.77107044 31.99880065 85.97575226 26.8515625 88.32421875 C26.12324219 88.65478271 25.39492188 88.98534668 24.64453125 89.32592773 C23.3326563 89.92619934 22.02503637 90.53589129 20.72265625 91.15649414 C18.39055962 92.22048062 16.40605212 92.98758474 13.828125 93.06640625 C10.82411943 91.31406967 9.74367076 88.70655605 8.125 85.6875 C7.48820312 84.53636719 6.85140625 83.38523437 6.1953125 82.19921875 C5 79 5 79 5.51171875 76.8046875 C11.10488537 70.02242247 19.84128776 65.91107096 28.25 64 C32.34180226 62.94402793 32.34180226 62.94402793 35 60 C37.45093273 55.09813453 36.70403522 48.33252791 35.1640625 43.23046875 C31.74022933 35.75088689 26.6815742 31.1134963 19.625 27.0625 C14.97495775 25.69955658 10.80070929 25.13941591 6 26 C3.45061379 28.12448851 2.34840673 30.3548856 0.7890625 33.2421875 C-2.9922373 39.94824958 -7.42883266 45.78187443 -14 50 C-17.17019303 50.08771285 -18.19222029 48.82962292 -20.578125 46.71484375 C-21.45984375 45.79832031 -22.3415625 44.88179687 -23.25 43.9375 C-24.14203125 43.01839844 -25.0340625 42.09929687 -25.953125 41.15234375 C-26.62859375 40.44207031 -27.3040625 39.73179688 -28 39 C-26.63653947 36.09829705 -25.07360381 33.58836398 -23.1640625 31.015625 C-22.59961426 30.2522583 -22.03516602 29.4888916 -21.45361328 28.70239258 C-20.8501709 27.89310303 -20.24672852 27.08381348 -19.625 26.25 C-19.00737793 25.41686279 -18.38975586 24.58372559 -17.75341797 23.7253418 C-11.8666245 15.79374932 -5.94213255 7.89019432 0 0 Z " fill="#4BA686" transform="translate(402,70)"/>
<path d="M0 0 C7.2150962 4.04133242 12.37097459 10.05330601 14.94140625 17.9375 C15.98351477 26.92157241 15.35136181 34.51421921 9.94140625 41.9375 C5.06554107 47.52720152 -1.39079409 51.20623417 -8.7265625 52.35546875 C-17.98451603 52.83860596 -25.26411825 49.04045376 -32.05859375 42.9375 C-37.25455503 35.45351239 -39.65217421 27.98413369 -38.05859375 18.9375 C-35.66787356 11.0822765 -30.72606537 5.59559661 -24.05859375 0.9375 C-17.16333645 -2.62134248 -7.27756903 -2.5280955 0 0 Z " fill="#2C4469" transform="translate(180.05859375,283.0625)"/>
<path d="M0 0 C7.26032396 3.296098 12.78199399 8.69246018 15.984375 16.03125 C18.32741361 23.52897354 17.63770176 30.64791963 14.42578125 37.765625 C10.24255898 45.01812367 4.72674024 49.0751606 -3.22265625 51.53125 C-11.05988626 53.32517962 -17.04195602 52.29804985 -23.953125 48.15625 C-30.01907959 44.00472789 -34.27016332 39.431662 -35.953125 32.15625 C-36.86174554 24.19500335 -37.07144509 16.86498013 -32.5078125 10.01953125 C-24.00527166 -0.17069985 -13.03724342 -3.72492669 0 0 Z " fill="#2B4469" transform="translate(354.953125,282.84375)"/>
<path d="M0 0 C15.04254336 6.23581083 30.04864782 12.54845378 45 19 C44.37321829 22.66172475 43.35548154 25.8818995 41.9375 29.3125 C41.57527344 30.19550781 41.21304688 31.07851562 40.83984375 31.98828125 C40.56269531 32.65214844 40.28554687 33.31601563 40 34 C30.40340129 34.61254885 21.73369586 33.50726823 13.39453125 28.40625 C10.62128953 26.77759255 8.27914383 26.26459214 5.0546875 26.3984375 C-0.02816106 27.88657187 -2.68951463 32.87384379 -5.32421875 37.1484375 C-8.67245188 43.65693278 -9.39836275 50.53206049 -7.19921875 57.55859375 C-5.55669707 61.42073931 -3.62659605 64.71675494 -1 68 C-1 68.66 -1 69.32 -1 70 C6.3667801 71.5241614 11.3568835 70.17529555 18.46875 67.92578125 C23.47065681 66.61444064 27.85618134 66.72195575 33 67 C33 71.29 33 75.58 33 80 C16.5 80 0 80 -17 80 C-15.36398681 52.18777572 -11.53604015 25.60747374 0 0 Z " fill="#5DC8A2" transform="translate(47,155)"/>
<path d="M0 0 C0.2266333 0.88671387 0.4532666 1.77342773 0.68676758 2.68701172 C1.5405958 6.02353647 2.39628328 9.35957347 3.25317383 12.6953125 C3.62141577 14.130347 3.9889475 15.56556397 4.35571289 17.00097656 C4.88754864 19.0818837 5.42151669 21.16222416 5.95703125 23.2421875 C6.13090363 23.91787781 6.304776 24.59356812 6.48391724 25.28973389 C7.68329455 29.90300592 9.01008996 34.45838702 10.4909668 38.98876953 C11 41 11 41 11 45 C8.75438718 45.86762314 6.50473745 46.7192103 4.25 47.5625 C3.29867187 47.9327832 3.29867187 47.9327832 2.328125 48.31054688 C-0.21684308 49.25165486 -2.49818899 49.99823926 -5.2265625 50.0078125 C-9.86437957 47.37222483 -12.20766403 40.84999651 -14 36 C-14.75853926 32.31244774 -15.2260768 28.74744613 -15.515625 24.99609375 C-16.03996677 21.75278619 -16.70853551 20.31874383 -19 18 C-25.77632264 15.74122579 -36.23090236 15.58378385 -42.6875 18.75 C-43.8138205 19.46630032 -44.92169197 20.21327526 -46 21 C-46.886875 21.53625 -47.77375 22.0725 -48.6875 22.625 C-53.15951441 27.21787967 -56.13719355 33.17549125 -57 39.5625 C-56.81923388 42.87460179 -56.12665357 43.87000759 -53.77734375 46.28125 C-51.85315428 47.82695379 -49.89420434 49.33018276 -47.90625 50.79296875 C-43.05386439 54.47791213 -39.3651873 58.95221905 -36 64 C-36.08984375 65.984375 -36.08984375 65.984375 -37 68 C-39.06640625 69.703125 -39.06640625 69.703125 -41.5625 71.25 C-42.38878906 71.77078125 -43.21507812 72.2915625 -44.06640625 72.828125 C-44.70449219 73.21484375 -45.34257812 73.6015625 -46 74 C-57.51049213 62.75482063 -67.30659748 49.50034274 -76 36 C-24.75167389 -0.45991286 -24.75167389 -0.45991286 0 0 Z " fill="#5DCAA2" transform="translate(195,26)"/>
<path d="M0 0 C2.19803044 2.71627777 3.5810868 5.11118299 4.68359375 8.421875 C5.11236816 9.69985962 5.11236816 9.69985962 5.54980469 11.00366211 C5.84274414 11.90995361 6.13568359 12.81624512 6.4375 13.75 C6.74461914 14.69302979 7.05173828 15.63605957 7.36816406 16.60766602 C11.11256622 28.27086587 13.97717207 39.80236611 15.6875 51.9375 C15.80706055 52.7823999 15.92662109 53.6272998 16.04980469 54.49780273 C17.1569365 63.01549729 17.49174163 71.35960778 18 80 C1.83 80 -14.34 80 -31 80 C-31.33 75.38 -31.66 70.76 -32 66 C-23.8337481 65.73657252 -16.39624584 66.49588495 -8.8125 69.6875 C-4.88271685 71.23247523 -2.11696687 71.24285792 2 70 C7.87104708 65.76738467 10.26907867 59.27307853 11.45703125 52.328125 C12.0059145 43.4949341 8.21186356 35.49999898 2.625 28.75 C-0.22947079 26.84701947 -2.31411299 26.44076545 -5.7421875 26.43359375 C-8.51190312 27.1284186 -10.65634945 28.53310348 -13.09082031 29.98657227 C-16.22739992 31.65152648 -19.49779456 32.44065754 -22.9375 33.25 C-23.60201172 33.42273438 -24.26652344 33.59546875 -24.95117188 33.7734375 C-29.73119995 34.94178578 -34.08289768 35.15383113 -39 35 C-39.67413211 33.08594633 -40.3390332 31.16863974 -41 29.25 C-41.37125 28.18265625 -41.7425 27.1153125 -42.125 26.015625 C-43 23 -43 23 -43 19 C-28.75529345 12.45201342 -14.4399726 6.10561167 0 0 Z " fill="#5DC8A1" transform="translate(464,155)"/>
<path d="M0 0 C4.9384206 3.58560857 9.62991579 7.33821883 14.1796875 11.40625 C15.66957166 12.71069794 17.23253347 13.93124751 18.8125 15.125 C21.22335454 17.19144675 22.43360374 19.26217272 24 22 C18.42582302 27.14652849 12.63166253 31.92543716 6.64794922 36.5793457 C2.04918357 40.16057189 -2.4851417 43.8137112 -7 47.5 C-9.00266683 49.1275163 -11.00614766 50.75402595 -13.00976562 52.38037109 C-14.34418729 53.46630747 -15.67619779 54.55521303 -17.00585938 55.64697266 C-18.91335231 57.21128633 -20.83044436 58.76302818 -22.75 60.3125 C-23.32234375 60.786875 -23.8946875 61.26125 -24.484375 61.75 C-27.69813127 64.32255009 -28.72211803 65 -33 65 C-35.25 63.5 -35.25 63.5 -37 62 C-35.71921683 58.5949545 -34.24732893 55.56011375 -32.33984375 52.46484375 C-31.80149902 51.58626709 -31.2631543 50.70769043 -30.70849609 49.80249023 C-30.12406738 48.85704346 -29.53963867 47.91159668 -28.9375 46.9375 C-27.67802648 44.88563695 -26.41892961 42.83354266 -25.16015625 40.78125 C-24.1549292 39.14542969 -24.1549292 39.14542969 -23.12939453 37.4765625 C-20.88360904 33.81566204 -18.65725063 30.14312173 -16.43359375 26.46875 C-16.05333542 25.84069962 -15.67307709 25.21264923 -15.28129578 24.56556702 C-13.77659535 22.08008625 -12.27206528 19.59450479 -10.76925659 17.10787964 C-9.71980338 15.37195289 -8.66852444 13.6371303 -7.6171875 11.90234375 C-6.71395752 10.40948853 -6.71395752 10.40948853 -5.79248047 8.88647461 C-3.92371047 5.87714913 -1.98009158 2.93689058 0 0 Z " fill="#4587D1" transform="translate(336,123)"/>
<path d="M0 0 C0 24.09 0 48.18 0 73 C-4.455 73.495 -4.455 73.495 -9 74 C-12.18921222 63.85790895 -15.16117573 53.65500706 -18.125 43.4453125 C-19.385518 39.1036754 -20.65702761 34.7654806 -21.9375 30.4296875 C-22.25162842 29.36274658 -22.56575684 28.29580566 -22.8894043 27.1965332 C-23.48754954 25.1657502 -24.08783825 23.1355968 -24.69067383 21.10620117 C-26.35596759 15.43831623 -27.7843934 9.7815436 -29 4 C-26.77092605 3.52040222 -24.54173703 3.0413392 -22.3125 2.5625 C-21.07113281 2.29566406 -19.82976562 2.02882813 -18.55078125 1.75390625 C-17.37902344 1.50511719 -16.20726562 1.25632812 -15 1 C-14.23042969 0.80277344 -13.46085938 0.60554688 -12.66796875 0.40234375 C-8.49041959 -0.22765268 -4.2247855 0 0 0 Z " fill="#5EA6EB" transform="translate(250,98)"/>
<path d="M0 0 C7.57115574 5.15602446 14.61087828 11.4178822 18.6328125 19.79296875 C19.20354085 23.21733884 19.27861995 24.71662301 17.5078125 27.66796875 C14.69617104 29.35495363 12.86077644 29.22442928 9.6328125 28.79296875 C7.359375 26.37890625 7.359375 26.37890625 5.2578125 23.16796875 C-0.41412021 14.96064492 -8.15997961 8.2762201 -18.1953125 6.2109375 C-31.24235595 4.49168424 -41.38280986 6.28404584 -52.1796875 13.98046875 C-56.90885581 17.88267866 -60.07427769 22.67719816 -63.3671875 27.79296875 C-64.3671875 28.79296875 -64.3671875 28.79296875 -67.2421875 29.04296875 C-70.3671875 28.79296875 -70.3671875 28.79296875 -72.3046875 27.73046875 C-73.61213328 25.34630291 -73.7156362 23.60284889 -73.1875 20.9453125 C-68.9847273 9.91803746 -59.06411245 1.81145119 -48.6796875 -3.08203125 C-32.8193249 -9.96528421 -14.91804901 -8.80730299 0 0 Z " fill="#2C4569" transform="translate(372.3671875,264.20703125)"/>
<path d="M0 0 C1.19305723 1.01133328 2.35986734 2.05435624 3.5 3.125 C4.52673828 4.053125 4.52673828 4.053125 5.57421875 5 C9.92827604 9.12066051 14.19891483 13.50012514 16.5 19.125 C16.42859991 22.98060463 16.22658883 24.39841117 13.5 27.125 C10.62890625 27.54296875 10.62890625 27.54296875 7.5 27.125 C5.33984375 25.11328125 5.33984375 25.11328125 3.4375 22.4375 C2.41462891 21.06464844 2.41462891 21.06464844 1.37109375 19.6640625 C0.44490234 18.40722656 0.44490234 18.40722656 -0.5 17.125 C-7.49793641 9.25232154 -16.17027994 4.78314215 -26.67578125 3.83984375 C-37.85484886 3.53770679 -46.81114389 5.93812087 -55.5 13.125 C-59.05623581 16.64609514 -62.05856751 20.25720517 -64.5 24.625 C-66.5 27.125 -66.5 27.125 -70.125 27.625 C-73.5 27.125 -73.5 27.125 -75.5 25.125 C-76.44089874 20.1068734 -75.43153464 17.4895182 -72.625 13.25 C-64.60302839 2.67192922 -53.59098534 -6.33632198 -40.1484375 -8.6171875 C-25.46970955 -10.04609022 -12.40768733 -8.80389511 0 0 Z " fill="#2C4469" transform="translate(198.5,265.875)"/>
<path d="M0 0 C10.125 0 10.125 0 13.59765625 0.65625 C14.33564453 0.79160156 15.07363281 0.92695312 15.83398438 1.06640625 C16.56939453 1.20949219 17.30480469 1.35257812 18.0625 1.5 C18.83271484 1.64308594 19.60292969 1.78617187 20.39648438 1.93359375 C22.26567368 2.28188989 24.13304894 2.63989922 26 3 C25.5497218 11.21669545 23.64201918 18.78346683 21.4375 26.6875 C20.89962264 28.65131264 20.3648425 30.61595137 19.83035278 32.58068848 C19.45966958 33.94314 19.08813941 35.30536135 18.71578979 36.6673584 C16.56517349 44.54952262 14.53139898 52.4614395 12.5 60.375 C12.14646053 61.7496079 11.79286503 63.12420139 11.43920898 64.4987793 C10.62503176 67.66557025 9.81191243 70.83262779 9 74 C6.03 73.67 3.06 73.34 0 73 C0 48.91 0 24.82 0 0 Z " fill="#4588D1" transform="translate(262,98)"/>
<path d="M0 0 C9.11588896 2.65189497 17.4774059 6.8805831 26 11 C24.5889953 14.82366195 22.81151387 18.15612443 20.68359375 21.62890625 C20.0095752 22.73387451 19.33555664 23.83884277 18.64111328 24.97729492 C17.90679748 26.17249968 17.17225426 27.36756474 16.4375 28.5625 C15.29442401 30.42805584 14.15227329 32.29417549 13.01031494 34.16041565 C12.21922062 35.45320228 11.42766963 36.74570956 10.63568115 38.03794861 C7.79091513 42.68584015 4.98758432 47.35716613 2.19921875 52.0390625 C1.04712406 53.96570921 -0.10576927 55.8918753 -1.25900269 57.81784058 C-2.00150489 59.0617739 -2.74104347 60.30748112 -3.47756958 61.55496216 C-4.50573306 63.29527452 -5.5455635 65.0286783 -6.5859375 66.76171875 C-7.46838135 68.2461145 -7.46838135 68.2461145 -8.36865234 69.76049805 C-10 72 -10 72 -13 73 C-15.1875 72.0625 -15.1875 72.0625 -17 71 C-16.35810613 63.07475032 -14.59975536 55.58219459 -12.6875 47.875 C-12.3664149 46.56606906 -12.04561583 45.25706793 -11.72509766 43.94799805 C-9.58844261 35.268724 -7.39239739 26.61263061 -5 18 C-4.54942688 16.36980612 -4.09890998 14.73959669 -3.6484375 13.109375 C-2.43836052 8.73787732 -1.22096907 4.36846722 0 0 Z " fill="#5DA6EA" transform="translate(300,105)"/>
<path d="M0 0 C4.03364518 13.53844162 8.0638529 27.07674075 11.90722656 40.6706543 C13.06450143 44.75753126 14.24407466 48.83471901 15.48046875 52.8984375 C15.71548096 53.67558105 15.95049316 54.45272461 16.19262695 55.25341797 C16.63187554 56.69955948 17.07659714 58.14405576 17.52807617 59.58642578 C18.60978681 63.15746057 19.24423397 66.26465689 19 70 C16.87374499 71.29094054 15.55547766 72.04718931 13.04003906 71.83349609 C10.22211732 70.68218149 9.58715849 69.24134183 8.109375 66.6015625 C7.5723999 65.65990234 7.0354248 64.71824219 6.48217773 63.74804688 C5.91055908 62.71744141 5.33894043 61.68683594 4.75 60.625 C3.50772183 58.43941516 2.26418166 56.25454726 1.01953125 54.0703125 C0.69666641 53.49980164 0.37380157 52.92929077 0.04115295 52.3414917 C-3.39843209 46.26717725 -6.95037723 40.2609531 -10.51672363 34.26043701 C-11.54016301 32.53760161 -12.56064241 30.81300894 -13.58105469 29.08837891 C-16.31932834 24.46780286 -19.06780373 19.86675246 -21.96484375 15.34375 C-24 12 -24 12 -24 10 C-20.56703905 8.32386272 -17.12793117 6.66074303 -13.6875 5 C-12.71103516 4.52304688 -11.73457031 4.04609375 -10.72851562 3.5546875 C-9.79072266 3.10351562 -8.85292969 2.65234375 -7.88671875 2.1875 C-6.59060669 1.55908203 -6.59060669 1.55908203 -5.26831055 0.91796875 C-3 0 -3 0 0 0 Z " fill="#4587D0" transform="translate(210,106)"/>
<path d="M0 0 C8.26151179 2.03411175 16.05731211 4.80850044 23.9375 8 C25.04673828 8.43828125 26.15597656 8.8765625 27.29882812 9.328125 C28.36423828 9.75609375 29.42964844 10.1840625 30.52734375 10.625 C31.48374756 11.00914063 32.44015137 11.39328125 33.42553711 11.7890625 C35.90729293 12.95639383 37.88023944 14.27197843 40 16 C38.33710938 16.03867187 38.33710938 16.03867187 36.640625 16.078125 C35.17704453 16.13441656 33.71350438 16.19176367 32.25 16.25 C31.15558594 16.27126953 31.15558594 16.27126953 30.0390625 16.29296875 C26.58627471 16.44991365 24.38363021 16.72449487 21.546875 18.76171875 C19.8782977 21.17609954 19.38055722 22.67502213 19 25.5625 C17.31737549 35.44066633 13.43960135 43.64114593 8 52 C1.14140139 50.07375528 -5.42316854 47.73185336 -12 45 C-10.6903184 37.96402549 -9.03814912 31.08237754 -7.125 24.1875 C-6.86251465 23.23278809 -6.6000293 22.27807617 -6.32958984 21.29443359 C-4.3526847 14.15218365 -2.24585452 7.0625051 0 0 Z " fill="#5DCAA2" transform="translate(317,25)"/>
<path d="M0 0 C3.68069887 1.53643852 5.98775204 3.78150945 8.75 6.625 C9.54921875 7.44226563 10.3484375 8.25953125 11.171875 9.1015625 C11.77515625 9.72804687 12.3784375 10.35453125 13 11 C10.00523841 14.57910532 7.0634654 17.97109725 3.625 21.125 C-13.22384867 37.7874676 -17.26312184 62.48914493 -19 85 C-23.29 85 -27.58 85 -32 85 C-31.5379597 52.95120475 -19.14716054 25.26698084 0 0 Z " fill="#E67087" transform="translate(147,149)"/>
<path d="M0 0 C4.10130357 1.50375507 5.39541158 3.82972954 7.51171875 7.5546875 C8.00072914 8.40283272 8.00072914 8.40283272 8.49961853 9.26811218 C9.57194948 11.13169725 10.62969763 13.0031363 11.6875 14.875 C13.19415927 17.50942839 14.70797763 20.13970722 16.22265625 22.76953125 C16.6104425 23.44489426 16.99822876 24.12025726 17.39776611 24.81608582 C20.15788161 29.6026363 23.01457776 34.32061315 25.93359375 39.01171875 C26.32977402 39.65095276 26.72595428 40.29018677 27.13414001 40.9487915 C28.6745849 43.43274471 30.21535769 45.91606554 31.77987671 48.38494873 C32.85619237 50.08450513 33.91676923 51.79399819 34.9765625 53.50390625 C35.58580566 54.47142822 36.19504883 55.4389502 36.82275391 56.43579102 C38 59 38 59 37.81787109 61.26538086 C36.71127247 63.61236093 35.36524622 64.08442082 33 65 C32.154375 64.14277344 31.30875 63.28554687 30.4375 62.40234375 C25.08530785 56.99956228 19.75974039 51.66142185 13.95703125 46.73828125 C10.63093789 43.78396679 7.56294858 40.56981381 4.4375 37.40625 C1.75490436 34.75804661 -1.04803106 32.31208779 -3.9140625 29.8671875 C-7.39786031 26.74873178 -10.63402975 23.38432246 -13.8984375 20.0390625 C-15.83096046 17.95873909 -15.83096046 17.95873909 -18 17 C-16.90115843 13.70347528 -16.08283842 12.94336278 -13.5 10.75 C-12.7884375 10.14542969 -12.076875 9.54085937 -11.34375 8.91796875 C-7.61968151 5.87043937 -3.82811594 2.91539385 0 0 Z " fill="#5EA6EA" transform="translate(174,124)"/>
<path d="M0 0 C7.72105044 4.34945717 13.76933777 9.83503924 16.625 18.4375 C16.625 19.7575 16.625 21.0775 16.625 22.4375 C-2.845 22.4375 -22.315 22.4375 -42.375 22.4375 C-41.18933724 14.13786066 -38.56211018 8.97150807 -32.12109375 3.53515625 C-22.2179404 -3.31829505 -11.14985478 -5.25275822 0 0 Z " fill="#4486CF" transform="translate(268.375,212.5625)"/>
<path d="M0 0 C5.11499486 2.84702544 8.62266151 6.6816343 10.7578125 12.15234375 C11.87764394 17.82087103 10.77112531 22.4371557 7.96875 27.42578125 C5.49096225 30.958627 2.80012803 32.80490524 -1.2421875 34.15234375 C-6.80764241 34.64223228 -11.64899702 34.92048916 -16.7421875 32.46484375 C-20.55662323 28.9364907 -23.99465472 25.68071426 -24.515625 20.359375 C-24.85275524 9.09144496 -24.85275524 9.09144496 -20.78125 4.51953125 C-14.68917043 -0.89221456 -7.95266413 -3.00649498 0 0 Z " fill="#2C4468" transform="translate(174.2421875,191.84765625)"/>
<path d="M0 0 C4.59047821 2.63527453 7.99478431 6.17706863 10.375 10.9375 C10.90279267 17.1492137 11.11903643 22.695849 7.375 27.9375 C1.65675052 33.53376016 -2.39882543 34.41350597 -10.28125 34.34375 C-15.35004081 33.7279156 -18.32810369 31.76697187 -21.625 27.9375 C-24.55191329 22.99833382 -25.41331877 18.55565911 -24.625 12.9375 C-22.85210113 6.88878621 -19.74381711 3.40433523 -14.625 -0.0625 C-9.47314305 -1.77978565 -5.11937784 -1.5005073 0 0 Z " fill="#2B4368" transform="translate(350.625,192.0625)"/>
<path d="M0 0 C1.81649308 2.44339726 3.48685112 4.87707857 5.125 7.4375 C5.61492432 8.2001416 6.10484863 8.9627832 6.60961914 9.74853516 C11.48473127 17.50638455 15.42995356 25.57227609 19 34 C19.40863281 34.96164063 19.81726563 35.92328125 20.23828125 36.9140625 C25.75737062 51.02076969 28.24343069 65.90729694 28 81 C24.37 81 20.74 81 17 81 C16.97421875 79.92105469 16.9484375 78.84210938 16.921875 77.73046875 C16.15198716 54.74789112 11.15293039 31.32263283 -6.28125 14.84375 C-7.67390085 13.64724716 -9.08810483 12.47493293 -10.53125 11.33984375 C-11.0159375 10.89769531 -11.500625 10.45554688 -12 10 C-12 9.34 -12 8.68 -12 8 C-9.8828125 6.0546875 -9.8828125 6.0546875 -7.125 3.875 C-6.22007812 3.15054688 -5.31515625 2.42609375 -4.3828125 1.6796875 C-2 0 -2 0 0 0 Z " fill="#E47087" transform="translate(369,154)"/>
<path d="M0 0 C1.16808701 -0.00945648 2.33617401 -0.01891296 3.53965759 -0.02865601 C4.8021785 -0.02258331 6.0646994 -0.01651062 7.36547852 -0.01025391 C9.30923119 -0.01455917 9.30923119 -0.01455917 11.29225159 -0.01895142 C14.03527551 -0.02337367 16.77800626 -0.01694841 19.52099609 -0.00292969 C23.0328559 0.01414581 26.54402705 0.00433164 30.05586147 -0.01364708 C33.40912193 -0.02711256 36.7621985 -0.01767569 40.11547852 -0.01025391 C42.00622353 -0.01936295 42.00622353 -0.01936295 43.93516541 -0.02865601 C45.10640457 -0.01919952 46.27764374 -0.00974304 47.484375 0 C49.0296714 0.00358017 49.0296714 0.00358017 50.60618591 0.00723267 C53.66219417 0.43830227 55.04125055 1.34460574 57.30688477 3.38818359 C56.99438477 6.76318359 56.99438477 6.76318359 56.30688477 10.38818359 C52.8872099 12.66796683 51.62015775 12.64900973 47.59790039 12.67871094 C46.42658569 12.69147064 45.255271 12.70423035 44.04846191 12.71737671 C42.14997498 12.72071518 42.14997498 12.72071518 40.21313477 12.72412109 C38.26582458 12.73410629 38.26582458 12.73410629 36.2791748 12.74429321 C33.53202997 12.75626356 30.78501087 12.75997417 28.0378418 12.75878906 C24.51682163 12.75858558 20.99660595 12.78591768 17.47577667 12.82033348 C14.11738306 12.84790569 10.75914022 12.84675022 7.40063477 12.84912109 C6.13497681 12.86349213 4.86931885 12.87786316 3.56530762 12.89266968 C2.39399292 12.88651642 1.22267822 12.88036316 0.01586914 12.87402344 C-1.01654907 12.87687347 -2.04896729 12.87972351 -3.1126709 12.88265991 C-5.69311523 12.38818359 -5.69311523 12.38818359 -7.52648926 10.51797485 C-8.97284321 7.87751247 -9.14985819 6.35701281 -8.69311523 3.38818359 C-6.24663735 -0.02309301 -4.04427929 0.0093771 0 0 Z " fill="#294268" transform="translate(232.693115234375,445.61181640625)"/>
<path d="M0 0 C4.3511139 2.30265134 7.12328595 5.46460771 9 10 C9.45989183 14.7522156 9.52078851 16.99699991 7.3125 21.25 C4.57313507 24.50762316 1.82257278 27.08871361 -2 29 C-9.49893791 29.62491149 -12.60599185 27.85811213 -18.375 23 C-20.98914592 18.17388446 -20.85515939 13.35561683 -20 8 C-15.84527123 -0.2935998 -8.40421436 -1.25954634 0 0 Z " fill="#6B7285" transform="translate(351,294)"/>
<path d="M0 0 C4.43041256 2.13609177 7.16159481 4.40398702 9 9 C9.75757439 14.68180789 9.26963497 19.15192056 6 24 C2.3754738 27.35268673 -0.25291397 28.79446047 -5.1875 29.375 C-10.14475724 28.88740093 -13.23704683 27.21207039 -17 24 C-19.7653253 20.1112613 -20.54834804 16.64019869 -20.3515625 11.953125 C-19.56912664 7.60625913 -16.73639799 4.84797345 -13.9375 1.625 C-9.39324094 -0.88884544 -5.07334788 -0.73753515 0 0 Z " fill="#6B7385" transform="translate(174,294)"/>
<path d="M0 0 C8.4344817 3.09061333 15.79880749 8.71912549 23 14 C19.9503416 19.7002257 16.33352973 24.63604758 12.3125 29.6875 C7.15858588 36.18102089 7.15858588 36.18102089 2.22265625 42.83984375 C1.81942139 43.4016333 1.41618652 43.96342285 1.00073242 44.54223633 C-0.05322763 46.02408908 -1.0935375 47.51562389 -2.1328125 49.0078125 C-2.74898438 49.66523437 -3.36515625 50.32265625 -4 51 C-8.13643553 51 -8.69802433 50.84767359 -11.75 48.5 C-12.36359375 48.0359375 -12.9771875 47.571875 -13.609375 47.09375 C-14.06828125 46.7328125 -14.5271875 46.371875 -15 46 C-13.02837462 37.45629003 -6.19152172 29.83130864 1 25 C2.65028459 24.29375429 4.3147894 23.61829399 6 23 C6.88038436 13.65814373 5.16267768 7.80547698 0 0 Z " fill="#5DC8A2" transform="translate(370,48)"/>
<path d="M0 0 C8.91 0 17.82 0 27 0 C27 5.94 27 11.88 27 18 C18.09 18 9.18 18 0 18 C0 12.06 0 6.12 0 0 Z " fill="#4485CD" transform="translate(73,274)"/>
<path d="M0 0 C0.14575327 3.39537852 0.23421542 6.78994902 0.3125 10.1875 C0.35439453 11.14720703 0.39628906 12.10691406 0.43945312 13.09570312 C0.51649946 17.54898101 0.43541412 20.25463007 -1.84375 24.15625 C-6.4870768 26.86868843 -10.54223561 26.54256527 -15.8125 26.3125 C-17.28106445 26.27866211 -17.28106445 26.27866211 -18.77929688 26.24414062 C-21.18777455 26.18539727 -23.59309078 26.10332129 -26 26 C-24.9354883 17.66535727 -21.09935608 11.33668132 -14.5625 6.0625 C-10.06411351 2.84611573 -5.67448696 0 0 0 Z " fill="#DED554" transform="translate(62,322)"/>
<path d="M0 0 C8.58 0 17.16 0 26 0 C26 5.94 26 11.88 26 18 C17.42 18 8.84 18 0 18 C0 12.06 0 6.12 0 0 Z " fill="#4486CF" transform="translate(412,274)"/>
<path d="M0 0 C9.01787682 1.60421643 15.21261358 5.92937933 21 13 C23.6874735 17.20547006 25.12644325 21.08942373 26 26 C22.60462148 26.14575327 19.21005098 26.23421542 15.8125 26.3125 C14.85279297 26.35439453 13.89308594 26.39628906 12.90429688 26.43945312 C8.45101899 26.51649946 5.74536993 26.43541412 1.84375 24.15625 C-0.86868843 19.5129232 -0.54256527 15.45776439 -0.3125 10.1875 C-0.28994141 9.20845703 -0.26738281 8.22941406 -0.24414062 7.22070312 C-0.18539727 4.81222545 -0.10332129 2.40690922 0 0 Z " fill="#E3B141" transform="translate(450,322)"/>
<path d="M0 0 C5.56573129 -0.28788265 9.23537975 -0.24860472 14 3 C18 8.15789474 18 8.15789474 18 11 C16.53125 12.15625 16.53125 12.15625 14.5 13.5 C7.5044824 18.5605872 2.57191319 25.76113745 -2 33 C-5.34373475 32.44271087 -8.03312999 31.64826111 -11 30 C-9.72019133 25.84827618 -8.12823627 22.19109296 -6.0625 18.375 C-3.01033208 12.41991443 -1.32149863 6.5379406 0 0 Z " fill="#C29782" transform="translate(347,53)"/>
<path d="M0 0 C0.14575327 3.39537852 0.23421542 6.78994902 0.3125 10.1875 C0.35439453 11.14720703 0.39628906 12.10691406 0.43945312 13.09570312 C0.51685073 17.56928452 0.44472184 20.2513849 -1.875 24.15625 C-6.38126324 26.81494531 -10.18606741 26.54798984 -15.3125 26.3125 C-16.24384766 26.28994141 -17.17519531 26.26738281 -18.13476562 26.24414062 C-20.4248396 26.18542078 -22.71157875 26.10336858 -25 26 C-22.87887883 16.58380789 -19.19240242 9.83360283 -11.09765625 4.21875 C-7.93570586 2.38163916 -3.71845134 0 0 0 Z " fill="#E0D753" transform="translate(438,322)"/>
<path d="M0 0 C10.64313364 3.23658428 17.20699686 7.70476961 22.90625 17.47265625 C24.1343528 20.31045094 24.60944287 22.9421152 25 26 C21.77131254 26.14584064 18.54347635 26.23424106 15.3125 26.3125 C13.94448242 26.3753418 13.94448242 26.3753418 12.54882812 26.43945312 C8.20898906 26.51835929 5.67165389 26.39627579 1.875 24.15625 C-0.88108244 19.51684456 -0.54324496 15.47333446 -0.3125 10.1875 C-0.28994141 9.20845703 -0.26738281 8.22941406 -0.24414062 7.22070312 C-0.18539727 4.81222545 -0.10332129 2.40690922 0 0 Z " fill="#E2B042" transform="translate(74,322)"/>
<path d="M0 0 C3.22868746 -0.14584064 6.45652365 -0.23424106 9.6875 -0.3125 C10.59951172 -0.35439453 11.51152344 -0.39628906 12.45117188 -0.43945312 C16.81150953 -0.51873199 19.32462785 -0.40522329 23.125 1.875 C25.82687524 6.37812541 25.54873139 10.16992441 25.3125 15.3125 C25.28994141 16.24384766 25.26738281 17.17519531 25.24414062 18.13476562 C25.18542078 20.4248396 25.10336858 22.71157875 25 25 C17.20892123 24.07330781 11.05005323 20.3384996 5.76953125 14.55859375 C2.14124429 9.6585361 0.61750149 6.14489291 0 0 Z " fill="#E3B141" transform="translate(37,360)"/>
<path d="M0 0 C0.93134766 0.01804687 1.86269531 0.03609375 2.82226562 0.0546875 C5.11174197 0.10165112 7.39908184 0.16730525 9.6875 0.25 C8.54266777 8.7458602 4.47653898 14.26670318 -2.046875 19.70703125 C-5.58938066 22.11959976 -10.88053776 25.25 -15.3125 25.25 C-15.45789953 21.83378212 -15.54659725 18.41836009 -15.625 15 C-15.66689453 14.03191406 -15.70878906 13.06382812 -15.75195312 12.06640625 C-15.8730277 5.04408091 -15.8730277 5.04408091 -13.4375 1.59375 C-8.91418634 -0.35127487 -4.86440232 -0.17876249 0 0 Z " fill="#E6DB53" transform="translate(465.3125,359.75)"/>
<path d="M0 0 C5.58224451 1.97020394 8.65044374 3.87714925 12 9 C12.8125 12.875 12.8125 12.875 13 16 C11.88625 16.391875 10.7725 16.78375 9.625 17.1875 C1.8925438 20.11107884 -4.98191233 23.59844761 -11.30859375 28.9609375 C-11.86675781 29.30382812 -12.42492187 29.64671875 -13 30 C-16.42054006 28.85981998 -17.2426201 28.07541482 -19 25 C-18.76165007 22.22492576 -18.18117723 21.17806689 -16.1796875 19.2109375 C-15.41914063 18.60507813 -14.65859375 17.99921875 -13.875 17.375 C-8.91773551 13.16092987 -5.49365816 8.4485583 -2 3 C-1.34 2.01 -0.68 1.02 0 0 Z " fill="#C29782" transform="translate(414,107)"/>
<path d="M0 0 C0.52207031 0.18175781 1.04414062 0.36351562 1.58203125 0.55078125 C10.98761022 3.76284412 20.03985422 6.37343985 30 7 C29.125 14.875 29.125 14.875 28 16 C26.08614764 16.1624969 24.16831905 16.27862512 22.25 16.375 C16.1982976 16.77533312 10.62487016 17.90083845 4.77734375 19.4765625 C2.02643891 19.99501714 0.5732658 20.03048401 -2 19 C-4.34091046 16.07386193 -4.4047401 12.77264753 -4.3359375 9.10546875 C-3.76166628 5.50625727 -2.00568354 3.00852531 0 0 Z " fill="#C29782" transform="translate(54,194)"/>
<path d="M0 0 C1.22589844 0.01353516 1.22589844 0.01353516 2.4765625 0.02734375 C3.41628906 0.04474609 3.41628906 0.04474609 4.375 0.0625 C4.59414062 0.93390625 4.81328125 1.8053125 5.0390625 2.703125 C7.05515932 10.27578133 9.46800655 16.81885866 13.203125 23.734375 C14.375 26.0625 14.375 26.0625 14.375 28.0625 C7.625 32.0625 7.625 32.0625 5.375 32.0625 C4.2696653 30.43735926 3.24146119 28.75951265 2.25 27.0625 C-1.80961105 20.49423577 -6.40970666 14.27818506 -13.625 11.0625 C-12.22966338 6.62279258 -10.06371468 4.15734321 -6.625 1.0625 C-4.21954362 -0.14022819 -2.67503047 -0.03821472 0 0 Z " fill="#C29782" transform="translate(163.625,53.9375)"/>
<path d="M0 0 C3.22868746 -0.14584064 6.45652365 -0.23424106 9.6875 -0.3125 C10.59951172 -0.35439453 11.51152344 -0.39628906 12.45117188 -0.43945312 C16.81150953 -0.51873199 19.32462785 -0.40522329 23.125 1.875 C25.82687524 6.37812541 25.54873139 10.16992441 25.3125 15.3125 C25.28994141 16.24384766 25.26738281 17.17519531 25.24414062 18.13476562 C25.18542078 20.4248396 25.10336858 22.71157875 25 25 C14.31376191 21.75030762 7.75666577 17.27686882 2.09375 7.4296875 C0.97534157 4.94522306 0.42031917 2.68431104 0 0 Z " fill="#E6B341" transform="translate(413,360)"/>
<path d="M0 0 C1.46484375 1.890625 1.46484375 1.890625 2.9375 4.25 C3.46472656 5.06597656 3.99195312 5.88195312 4.53515625 6.72265625 C5.01855469 7.47417969 5.50195312 8.22570312 6 9 C9.28421296 13.7073719 13.35933701 16.72225017 18 20 C17.27633685 23.34430737 16.18284504 25.34262343 14 28 C10.35893503 27.36787067 8.01216972 25.78077866 5 23.6875 C-0.03230105 20.38462856 -4.909823 18.42768729 -10.6640625 16.7265625 C-13 16 -13 16 -14 15 C-13.8874681 9.37340479 -12.26823676 6.52498577 -8.66796875 2.48046875 C-5.57135173 -0.26805081 -4.0439196 -1.3479732 0 0 Z " fill="#C29782" transform="translate(101,107)"/>
<path d="M0 0 C3.15250382 3.73630082 3.34899111 7.03782512 3.3984375 11.71875 C2.89220802 14.61716195 1.61731109 16.56975476 0 19 C-0.98097656 18.72285156 -1.96195312 18.44570312 -2.97265625 18.16015625 C-11.46339743 15.85287811 -19.38135105 14.51208016 -28.18359375 14.2734375 C-29.11300781 14.18320313 -30.04242188 14.09296875 -31 14 C-32.35439668 11.29120665 -32.06501451 8.99066732 -32 6 C-30.24236328 5.74476563 -30.24236328 5.74476563 -28.44921875 5.484375 C-20.30176795 4.24546969 -12.68904875 2.96428397 -5.06640625 -0.328125 C-3 -1 -3 -1 0 0 Z " fill="#C19682" transform="translate(461,195)"/>
<path d="M0 0 C0.93585938 0.01804687 1.87171875 0.03609375 2.8359375 0.0546875 C5.14167015 0.10174327 7.44530945 0.16746287 9.75 0.25 C8.89948613 8.12442051 6.33534893 13.08923187 0.375 18.34375 C-4.56219224 22.01653935 -8.03565828 23.64000327 -14.25 24.25 C-14.36638036 21.00030231 -14.43730581 17.7511417 -14.5 14.5 C-14.53351563 13.57960938 -14.56703125 12.65921875 -14.6015625 11.7109375 C-14.65746329 7.85378272 -14.68322704 5.0770698 -12.875 1.625 C-8.69595126 -0.56402553 -4.63404215 -0.16874663 0 0 Z " fill="#E4DA53" transform="translate(88.25,359.75)"/>
<path d="M0 0 C8.58 0 17.16 0 26 0 C26 4.95 26 9.9 26 15 C17.42 15 8.84 15 0 15 C0 10.05 0 5.1 0 0 Z " fill="#5EA7EC" transform="translate(412,247)"/>
<path d="M0 0 C8.58 0 17.16 0 26 0 C26 4.95 26 9.9 26 15 C17.42 15 8.84 15 0 15 C0 10.05 0 5.1 0 0 Z " fill="#5EA7EC" transform="translate(74,247)"/>
<path d="M0 0 C3.625 1.5 3.625 1.5 6 3 C5.31438614 6.83095579 4.26661895 10.42631011 3.0625 14.125 C1.21026127 20.03195769 -0.06865901 25.88501115 -1 32 C-3.31 32 -5.62 32 -8 32 C-8.10957031 31.04480469 -8.21914062 30.08960937 -8.33203125 29.10546875 C-9.43732916 20.09234837 -11.12057317 11.6382805 -14 3 C-9.57602591 -0.85313872 -5.64352641 -0.6921306 0 0 Z " fill="#C29782" transform="translate(262,31)"/>
<path d="M0 0 C1.5778125 1.2375 1.5778125 1.2375 3.1875 2.5 C15.43831095 11.62385571 29.35049158 19.4607157 44 24 C32.94595168 27.9478744 13.31190094 19.0120311 3.19140625 14.27734375 C0.43434723 12.90368537 -2.28787577 11.46037459 -5 10 C-3.35 6.7 -1.7 3.4 0 0 Z " fill="#8E93A3" transform="translate(195,469)"/>
<path d="M0 0 C8.58 0 17.16 0 26 0 C26 6.27 26 12.54 26 19 C24.68 18.0925 23.36 17.185 22 16.25 C14.98540708 11.59187189 8.04647086 8.45864387 0 6 C0 4.02 0 2.04 0 0 Z " fill="#5EA6EA" transform="translate(74,304)"/>
<path d="M0 0 C8.58 0 17.16 0 26 0 C26 1.98 26 3.96 26 6 C25.26136719 6.20753906 24.52273438 6.41507812 23.76171875 6.62890625 C15.94919932 9.00145027 9.68157216 12.3469669 3 17 C2.01 17.66 1.02 18.32 0 19 C0 12.73 0 6.46 0 0 Z " fill="#5EA6EA" transform="translate(412,304)"/>
<path d="M0 0 C2 3 2 3 1.8125 6.0625 C1 9 1 9 -2 11 C-4.83079592 11.35384949 -6.36830089 11.3920891 -8.8125 9.875 C-10.55198782 7.12844028 -10.39769128 5.18153026 -10 2 C-7.65569181 -2.27491494 -4.20074737 -1.06928115 0 0 Z " fill="#314967" transform="translate(88,364)"/>
<path d="M0 0 C1.8125 1.125 1.8125 1.125 3 3 C3.4375 6 3.4375 6 3 9 C1.375 10.9375 1.375 10.9375 -1 12 C-4.125 11.875 -4.125 11.875 -7 11 C-9 8 -9 8 -8.8125 4.9375 C-7.47741613 0.1106583 -4.61266905 -0.57658363 0 0 Z " fill="#304967" transform="translate(462,363)"/>
<path d="M0 0 C2.875 0.875 2.875 0.875 4.875 2.875 C5.20515665 5.97847254 5.38031294 8.03281176 3.75 10.75 C0.99409116 12.40354531 -0.97575452 12.26865568 -4.125 11.875 C-6 10.6875 -6 10.6875 -7.125 8.875 C-7.72136329 5.5524045 -7.41609393 4.30044497 -5.5 1.5 C-3.125 -0.125 -3.125 -0.125 0 0 Z " fill="#314966" transform="translate(429.125,331.125)"/>
<path d="M0 0 C1.875 1.1875 1.875 1.1875 3 3 C2.77669287 6.64734979 2.61627165 8.38372835 0 11 C-3.10347254 11.33015665 -5.15781176 11.50531294 -7.875 9.875 C-9.54663625 7.08893958 -9.46376624 5.18011138 -9 2 C-6.13326387 -1.29143778 -4.01983549 -1.44301787 0 0 Z " fill="#324865" transform="translate(87,332)"/>
<path d="M0 0 C2.9375 0.8125 2.9375 0.8125 4.9375 3.8125 C5.29134949 6.64329592 5.3295891 8.18080089 3.8125 10.625 C1.03746189 12.38252414 -0.85179745 12.28072746 -4.0625 11.8125 C-6 10.1875 -6 10.1875 -7.0625 7.8125 C-6.9375 4.6875 -6.9375 4.6875 -6.0625 1.8125 C-3.0625 -0.1875 -3.0625 -0.1875 0 0 Z " fill="#314966" transform="translate(52.0625,331.1875)"/>
<path d="M0 0 C6.46153846 0.46153846 6.46153846 0.46153846 9 3 C8.8125 6.5 8.8125 6.5 8 10 C5 12 5 12 1.9375 11.8125 C-1 11 -1 11 -3 8 C-2.55555556 2.55555556 -2.55555556 2.55555556 0 0 Z " fill="#304766" transform="translate(425,363)"/>
<path d="M0 0 C1.875 1.1875 1.875 1.1875 3 3 C2.77669287 6.64734979 2.61627165 8.38372835 0 11 C-3.10347254 11.33015665 -5.15781176 11.50531294 -7.875 9.875 C-9.54663625 7.08893958 -9.46376624 5.18011138 -9 2 C-6.13326387 -1.29143778 -4.01983549 -1.44301787 0 0 Z " fill="#314766" transform="translate(464,332)"/>
<path d="M0 0 C1.39935013 2.79870027 1.25265405 4.90498792 1 8 C-0.1875 9.875 -0.1875 9.875 -2 11 C-4.85480169 11.42822025 -6.34492892 11.40659584 -8.8125 9.875 C-10.55198782 7.12844028 -10.39769128 5.18153026 -10 2 C-7.65446208 -2.27715738 -4.20919664 -1.01332512 0 0 Z " fill="#2D4566" transform="translate(57,364)"/>
<path d="M0 0 C1.8125 1.125 1.8125 1.125 3 3 C3.39704314 6.17634515 3.49933741 8.14003001 1.875 10.9375 C0 12 0 12 -3.0625 11.8125 C-6 11 -6 11 -8 9 C-8.333728 5.86295684 -8.52849028 3.83445834 -6.8125 1.125 C-4.34492892 -0.40659584 -2.85480169 -0.42822025 0 0 Z " fill="#E16F86" transform="translate(346,203)"/>
<path d="M0 0 C2.9375 0.75 2.9375 0.75 4.9375 2.75 C4.75 6.25 4.75 6.25 3.9375 9.75 C0.9375 11.75 0.9375 11.75 -1.625 11.5 C-4.0625 10.75 -4.0625 10.75 -6.0625 8.75 C-6.375 5.25 -6.375 5.25 -6.0625 1.75 C-3.0625 -0.25 -3.0625 -0.25 0 0 Z " fill="#E06F86" transform="translate(168.0625,203.25)"/>
</svg>
