<?xml version="1.0" encoding="UTF-8"?>
<!DOCTYPE svg PUBLIC "-//W3C//DTD SVG 1.1//EN" "http://www.w3.org/Graphics/SVG/1.1/DTD/svg11.dtd">
<svg xmlns="http://www.w3.org/2000/svg" version="1.1" width="512px" height="512px" style="shape-rendering:geometricPrecision; text-rendering:geometricPrecision; image-rendering:optimizeQuality; fill-rule:evenodd; clip-rule:evenodd" xmlns:xlink="http://www.w3.org/1999/xlink">
<g><path style="opacity:0.946" fill="#1ae5be" d="M 450.5,246.5 C 446.167,246.5 441.833,246.5 437.5,246.5C 429.167,246.5 420.833,246.5 412.5,246.5C 408.167,246.5 403.833,246.5 399.5,246.5C 361.833,246.5 324.167,246.5 286.5,246.5C 282.167,246.5 277.833,246.5 273.5,246.5C 261.833,246.5 250.167,246.5 238.5,246.5C 234.167,246.5 229.833,246.5 225.5,246.5C 195.5,246.5 165.5,246.5 135.5,246.5C 127.5,246.5 119.5,246.5 111.5,246.5C 107.167,246.5 102.833,246.5 98.5,246.5C 90.1667,246.5 81.8333,246.5 73.5,246.5C 69.1667,246.5 64.8333,246.5 60.5,246.5C 47.1625,246.667 33.8292,246.5 20.5,246C 19.6667,245.167 18.8333,244.333 18,243.5C 18.792,155.149 55.9586,86.9823 129.5,39C 187.378,5.34985 249.045,-3.98348 314.5,11C 392.089,32.5931 446.589,80.4264 478,154.5C 488.947,183.182 493.947,212.849 493,243.5C 492.167,244.333 491.333,245.167 490.5,246C 477.171,246.5 463.837,246.667 450.5,246.5 Z M 234.5,17.5 C 240.509,17.3338 246.509,17.5005 252.5,18C 245.401,19.4406 239.568,22.9406 235,28.5C 234.333,31.1667 234.333,33.8333 235,36.5C 239.536,44.6754 241.036,53.3421 239.5,62.5C 232.444,63.5095 225.444,64.8429 218.5,66.5C 214.266,52.0646 210.266,37.5646 206.5,23C 215.762,20.4659 225.096,18.6326 234.5,17.5 Z M 261.5,18.5 C 266.316,17.3503 271.316,17.1837 276.5,18C 286.094,18.6535 295.427,20.3201 304.5,23C 300.427,36.7881 296.427,50.6214 292.5,64.5C 291.667,64.8333 290.833,65.1667 290,65.5C 284.242,64.138 278.409,63.4713 272.5,63.5C 273.226,54.1547 276.06,45.488 281,37.5C 282.466,32.2652 280.966,28.0985 276.5,25C 272.212,21.1895 267.212,19.0229 261.5,18.5 Z M 191.5,25.5 C 192.496,25.4142 193.329,25.7476 194,26.5C 197.983,40.7598 201.316,55.0932 204,69.5C 200.183,70.9953 196.35,72.4953 192.5,74C 191.056,74.7805 189.723,74.6139 188.5,73.5C 182.662,65.4895 179.496,56.4895 179,46.5C 178.167,44.3333 176.667,42.8333 174.5,42C 153.927,37.4387 141.261,45.2721 136.5,65.5C 137.484,70.6561 140.484,74.1561 145.5,76C 150.083,79.9123 153.917,84.4123 157,89.5C 157.684,90.7839 157.517,91.9505 156.5,93C 153.48,95.0014 150.48,96.6681 147.5,98C 138.167,86 128.833,74 119.5,62C 141.474,45.8463 165.474,33.6796 191.5,25.5 Z M 353.5,39.5 C 347.696,39.0862 342.196,40.0862 337,42.5C 336.581,43.6721 335.915,44.6721 335,45.5C 334.404,56.7954 330.57,66.7954 323.5,75.5C 317.677,72.9196 311.677,70.9196 305.5,69.5C 309.169,54.8273 312.836,40.1606 316.5,25.5C 329.52,28.6138 341.853,33.2804 353.5,39.5 Z M 254.5,30.5 C 259.357,30.5077 263.69,32.0077 267.5,35C 262.896,43.5769 260.23,52.7435 259.5,62.5C 257.533,62.7394 255.699,62.4061 254,61.5C 253.955,51.9434 252.122,42.7768 248.5,34C 250.432,32.5415 252.432,31.3748 254.5,30.5 Z M 371.5,50.5 C 372.721,49.5354 374.054,49.702 375.5,51C 380.833,54.6667 386.167,58.3333 391.5,62C 382.333,74.5 373.167,87 364,99.5C 360.852,97.3449 358.019,94.8449 355.5,92C 357.284,88.265 359.451,84.765 362,81.5C 367.083,76.815 372.083,72.1483 377,67.5C 377.856,60.902 376.022,55.2353 371.5,50.5 Z M 347.5,52.5 C 354.657,52.4083 359.99,55.4083 363.5,61.5C 355.425,68.3118 348.758,76.3118 343.5,85.5C 340.865,84.1891 338.531,82.5224 336.5,80.5C 342.4,72.0351 346.067,62.7018 347.5,52.5 Z M 161.5,53.5 C 163.288,53.2148 164.955,53.5481 166.5,54.5C 168.029,63.7223 171.362,72.2223 176.5,80C 174.625,81.8597 172.458,83.3597 170,84.5C 164.921,76.0858 158.421,68.9192 150.5,63C 152.623,57.9532 156.29,54.7865 161.5,53.5 Z M 108.5,70.5 C 118.494,82.5035 128.16,94.8369 137.5,107.5C 133.859,110.805 130.192,114.138 126.5,117.5C 118.873,112.574 113.373,105.907 110,97.5C 107.984,94.4099 105.151,92.7433 101.5,92.5C 79.5712,96.3793 71.2379,109.046 76.5,130.5C 77.5,131.333 78.5,132.167 79.5,133C 89.6273,134.231 98.2939,138.398 105.5,145.5C 102.333,151.167 99.1667,156.833 96,162.5C 81.4256,156.129 66.9256,149.629 52.5,143C 66.2376,115.024 84.9043,90.8575 108.5,70.5 Z M 434.5,105.5 C 428.405,98.6181 420.738,94.6181 411.5,93.5C 408.37,93.6482 405.87,94.9816 404,97.5C 400.209,106.626 394.209,113.959 386,119.5C 381.984,115.652 378.151,111.652 374.5,107.5C 383.667,95.1667 392.833,82.8333 402,70.5C 414.474,80.8015 425.308,92.4682 434.5,105.5 Z M 239.5,75.5 C 306.882,72.2732 359.049,98.6065 396,154.5C 410.499,178.826 418.333,205.16 419.5,233.5C 416.167,233.5 412.833,233.5 409.5,233.5C 403.84,167.643 370.84,121.477 310.5,95C 243.484,73.2951 185.984,88.1284 138,139.5C 115.565,166.726 103.398,198.06 101.5,233.5C 98.1016,233.82 94.7683,233.487 91.5,232.5C 97.1728,169.047 127.839,122.214 183.5,92C 201.423,83.5208 220.09,78.0208 239.5,75.5 Z M 238.5,98.5 C 242.167,98.5 245.833,98.5 249.5,98.5C 249.5,122.167 249.5,145.833 249.5,169.5C 246.545,170.159 243.545,170.492 240.5,170.5C 234.478,148.264 228.144,126.097 221.5,104C 221.645,103.228 221.978,102.561 222.5,102C 227.954,100.745 233.287,99.5784 238.5,98.5 Z M 261.5,98.5 C 270.451,98.2544 279.118,99.5878 287.5,102.5C 281.512,124.785 275.679,147.118 270,169.5C 267.226,170.523 264.393,170.523 261.5,169.5C 261.5,145.833 261.5,122.167 261.5,98.5 Z M 299.5,105.5 C 308.428,108.085 316.761,111.918 324.5,117C 312.528,137.121 300.195,156.955 287.5,176.5C 285.16,176.134 283.493,174.967 282.5,173C 288.563,150.581 294.23,128.081 299.5,105.5 Z M 434.5,105.5 C 443.848,117.002 451.848,129.502 458.5,143C 444.643,149.427 430.643,155.594 416.5,161.5C 414.912,160.99 413.745,159.99 413,158.5C 411.287,154.905 409.453,151.405 407.5,148C 409.154,145.013 411.487,142.679 414.5,141C 421.805,137.146 429.305,133.979 437,131.5C 439.499,122.47 438.666,113.804 434.5,105.5 Z M 97.5,106.5 C 103.523,114.36 110.523,121.526 118.5,128C 116.548,130.074 114.715,132.241 113,134.5C 105.669,127.918 97.169,123.584 87.5,121.5C 87.6373,114.364 90.9707,109.364 97.5,106.5 Z M 206.5,106.5 C 207.496,106.414 208.329,106.748 209,107.5C 215.191,129.597 221.691,151.597 228.5,173.5C 226.971,175.188 225.137,176.521 223,177.5C 210.456,157.582 198.29,137.416 186.5,117C 192.818,112.676 199.484,109.176 206.5,106.5 Z M 413.5,107.5 C 421.549,109.265 425.549,114.265 425.5,122.5C 415.751,124.708 407.084,129.041 399.5,135.5C 398.018,133.517 396.351,131.684 394.5,130C 402.887,124.123 409.22,116.623 413.5,107.5 Z M 174.5,123.5 C 187.185,143.688 199.518,164.188 211.5,185C 209.945,186.289 208.279,186.956 206.5,187C 190.302,171.134 173.802,155.634 157,140.5C 156.493,139.004 156.993,137.837 158.5,137C 163.731,132.26 169.064,127.76 174.5,123.5 Z M 335.5,123.5 C 343.942,129.441 351.609,136.274 358.5,144C 340.833,158.333 323.167,172.667 305.5,187C 302.118,187.242 300.285,185.742 300,182.5C 312.348,163.137 324.181,143.471 335.5,123.5 Z M 146.5,149.5 C 150.905,152.396 154.905,155.896 158.5,160C 136.509,179.492 126.176,203.992 127.5,233.5C 123.167,233.5 118.833,233.5 114.5,233.5C 116.732,202.116 127.399,174.116 146.5,149.5 Z M 366.5,154.5 C 374.745,163.968 381.245,174.635 386,186.5C 391.863,201.648 395.363,217.315 396.5,233.5C 392.833,233.5 389.167,233.5 385.5,233.5C 387.903,205.016 378.57,181.35 357.5,162.5C 360.545,159.782 363.545,157.116 366.5,154.5 Z M 46.5,155.5 C 61.0982,161.699 75.7649,167.699 90.5,173.5C 89.7821,178.323 88.4488,182.99 86.5,187.5C 75.6911,188.464 65.6911,185.964 56.5,180C 54.5,179.333 52.5,179.333 50.5,180C 36.5675,191.043 33.7342,204.543 42,220.5C 43.8333,222.333 45.6667,224.167 47.5,226C 50.5,226.667 53.5,226.667 56.5,226C 63.9635,223.423 71.6301,221.923 79.5,221.5C 79.6054,225.548 79.2721,229.548 78.5,233.5C 62.5,233.5 46.5,233.5 30.5,233.5C 31.404,206.557 36.7374,180.557 46.5,155.5 Z M 463.5,155.5 C 474.19,180.276 479.857,206.276 480.5,233.5C 464.5,233.5 448.5,233.5 432.5,233.5C 432.793,229.563 432.46,225.73 431.5,222C 435.833,221.333 440.167,221.333 444.5,222C 450.072,223.377 455.572,224.877 461,226.5C 465.36,226.316 468.694,224.316 471,220.5C 479.597,204.579 476.764,191.079 462.5,180C 457.581,179.286 453.247,180.619 449.5,184C 441.772,187.147 433.772,188.48 425.5,188C 423.833,183.667 422.167,179.333 420.5,175C 434.859,168.388 449.192,161.888 463.5,155.5 Z M 167.5,169.5 C 178.528,178.054 188.861,187.554 198.5,198C 190.403,208.454 185.736,220.288 184.5,233.5C 169.833,233.5 155.167,233.5 140.5,233.5C 139.682,207.826 148.682,186.493 167.5,169.5 Z M 345.5,171.5 C 355.439,177.33 362.605,185.664 367,196.5C 371.651,208.405 373.484,220.738 372.5,233.5C 357.167,233.5 341.833,233.5 326.5,233.5C 325.524,220.569 321.19,208.903 313.5,198.5C 324.186,189.477 334.853,180.477 345.5,171.5 Z M 247.5,182.5 C 272.461,180.733 291.961,190.066 306,210.5C 309.807,217.755 312.307,225.421 313.5,233.5C 308.125,233.828 302.792,233.495 297.5,232.5C 289.19,205.007 270.857,193.841 242.5,199C 226.355,204.646 216.355,215.813 212.5,232.5C 207.544,233.494 202.544,233.827 197.5,233.5C 203.442,205.892 220.108,188.892 247.5,182.5 Z M 53.5,194.5 C 62.7989,198.228 72.4656,200.561 82.5,201.5C 82.3259,203.861 81.9926,206.194 81.5,208.5C 71.7053,209.067 62.0387,210.234 52.5,212C 49.6328,205.975 49.9661,200.142 53.5,194.5 Z M 456.5,194.5 C 459.595,194.626 461.428,196.293 462,199.5C 462.978,203.9 462.478,208.067 460.5,212C 450.518,209.487 440.352,207.987 430,207.5C 429.749,205.567 429.249,203.734 428.5,202C 435.604,201.205 442.604,199.872 449.5,198C 452.174,197.33 454.507,196.163 456.5,194.5 Z M 164.5,203.5 C 170.989,203.156 172.989,205.99 170.5,212C 164.744,214.569 161.911,212.736 162,206.5C 162.698,205.309 163.531,204.309 164.5,203.5 Z M 340.5,203.5 C 345.835,203.005 348.335,205.338 348,210.5C 343.555,214.911 340.055,214.244 337.5,208.5C 338.26,206.64 339.26,204.973 340.5,203.5 Z M 247.5,210.5 C 266.127,208.131 278.127,215.798 283.5,233.5C 264.5,233.5 245.5,233.5 226.5,233.5C 227.306,228.22 229.473,223.554 233,219.5C 237.343,215.585 242.177,212.585 247.5,210.5 Z"/></g>
<g><path style="opacity:0.939" fill="#1ae5be" d="M 160.5,190.5 C 178.436,188.934 186.27,196.934 184,214.5C 178.692,225.388 170.192,228.888 158.5,225C 149.114,219.177 146.281,211.011 150,200.5C 152.409,195.922 155.909,192.588 160.5,190.5 Z M 164.5,203.5 C 163.531,204.309 162.698,205.309 162,206.5C 161.911,212.736 164.744,214.569 170.5,212C 172.989,205.99 170.989,203.156 164.5,203.5 Z"/></g>
<g><path style="opacity:0.941" fill="#1ae5be" d="M 337.5,190.5 C 351.568,188.582 359.568,194.582 361.5,208.5C 358.831,223.339 350.164,228.839 335.5,225C 325.924,219.837 322.757,212.003 326,201.5C 328.437,196.226 332.271,192.56 337.5,190.5 Z M 340.5,203.5 C 339.26,204.973 338.26,206.64 337.5,208.5C 340.055,214.244 343.555,214.911 348,210.5C 348.335,205.338 345.835,203.005 340.5,203.5 Z"/></g>
<g><path style="opacity:0.966" fill="#0635c9" d="M 60.5,246.5 C 64.8333,246.5 69.1667,246.5 73.5,246.5C 73.5,251.5 73.5,256.5 73.5,261.5C 81.8333,261.5 90.1667,261.5 98.5,261.5C 98.5,256.5 98.5,251.5 98.5,246.5C 102.833,246.5 107.167,246.5 111.5,246.5C 111.333,284.501 111.5,322.501 112,360.5C 116.492,408.508 138.659,445.841 178.5,472.5C 181.571,469.025 183.571,465.025 184.5,460.5C 196.681,439.314 209.014,418.148 221.5,397C 207.872,388.667 204.372,377.167 211,362.5C 214.981,358.188 219.314,354.188 224,350.5C 224.333,349.5 224.667,348.5 225,347.5C 225.5,313.835 225.667,280.168 225.5,246.5C 229.833,246.5 234.167,246.5 238.5,246.5C 238.667,280.835 238.5,315.168 238,349.5C 236.02,358.154 231.02,364.488 223,368.5C 220.365,372.351 220.031,376.351 222,380.5C 227,384.5 232,388.5 237,392.5C 240.859,408.679 250.359,413.513 265.5,407C 267,405.5 268.5,404 270,402.5C 272.185,392.665 277.685,385.498 286.5,381C 290.577,377.861 291.41,374.028 289,369.5C 284.815,366.405 280.815,363.072 277,359.5C 275.725,357.283 274.725,354.949 274,352.5C 273.5,317.168 273.333,281.835 273.5,246.5C 277.833,246.5 282.167,246.5 286.5,246.5C 286.333,281.168 286.5,315.835 287,350.5C 290.667,353.5 294.333,356.5 298,359.5C 306.554,371.874 305.054,382.708 293.5,392C 309.125,416.749 324.625,441.583 340,466.5C 377.517,437.92 397.184,399.92 399,352.5C 399.5,317.168 399.667,281.835 399.5,246.5C 403.833,246.5 408.167,246.5 412.5,246.5C 412.5,251.5 412.5,256.5 412.5,261.5C 420.833,261.5 429.167,261.5 437.5,261.5C 437.5,256.5 437.5,251.5 437.5,246.5C 441.833,246.5 446.167,246.5 450.5,246.5C 450.5,267.5 450.5,288.5 450.5,309.5C 465.929,311.471 477.095,319.471 484,333.5C 493.459,360.067 485.959,380.233 461.5,394C 441.363,401.076 424.03,396.909 409.5,381.5C 392.063,449.438 349.063,490.605 280.5,505C 211.191,512.756 157.691,487.589 120,429.5C 111.764,414.29 105.597,398.29 101.5,381.5C 83.1246,399.671 62.7912,402.171 40.5,389C 20.3841,370.752 17.2175,349.919 31,326.5C 38.3287,316.583 48.1621,310.916 60.5,309.5C 60.5,288.5 60.5,267.5 60.5,246.5 Z M 73.5,246.5 C 81.8333,246.5 90.1667,246.5 98.5,246.5C 98.5,251.5 98.5,256.5 98.5,261.5C 90.1667,261.5 81.8333,261.5 73.5,261.5C 73.5,256.5 73.5,251.5 73.5,246.5 Z M 135.5,246.5 C 165.5,246.5 195.5,246.5 225.5,246.5C 225.667,280.168 225.5,313.835 225,347.5C 224.667,348.5 224.333,349.5 224,350.5C 219.314,354.188 214.981,358.188 211,362.5C 204.372,377.167 207.872,388.667 221.5,397C 209.014,418.148 196.681,439.314 184.5,460.5C 157.6,435.37 141.766,404.37 137,367.5C 135.677,340.518 135.177,313.518 135.5,286.5C 149.533,268.825 166.867,264.659 187.5,274C 190.667,276.5 193.833,279 197,281.5C 199.467,285.6 202.301,289.434 205.5,293C 210.774,294.207 213.774,292.207 214.5,287C 213.964,283.093 212.464,279.593 210,276.5C 192.865,257.008 172.031,251.508 147.5,260C 143.34,262.023 139.34,264.189 135.5,266.5C 135.5,259.833 135.5,253.167 135.5,246.5 Z M 238.5,246.5 C 250.167,246.5 261.833,246.5 273.5,246.5C 273.333,281.835 273.5,317.168 274,352.5C 274.725,354.949 275.725,357.283 277,359.5C 280.815,363.072 284.815,366.405 289,369.5C 291.41,374.028 290.577,377.861 286.5,381C 277.685,385.498 272.185,392.665 270,402.5C 268.5,404 267,405.5 265.5,407C 250.359,413.513 240.859,408.679 237,392.5C 232,388.5 227,384.5 222,380.5C 220.031,376.351 220.365,372.351 223,368.5C 231.02,364.488 236.02,358.154 238,349.5C 238.5,315.168 238.667,280.835 238.5,246.5 Z M 286.5,246.5 C 324.167,246.5 361.833,246.5 399.5,246.5C 399.667,281.835 399.5,317.168 399,352.5C 397.184,399.92 377.517,437.92 340,466.5C 324.625,441.583 309.125,416.749 293.5,392C 305.054,382.708 306.554,371.874 298,359.5C 294.333,356.5 290.667,353.5 287,350.5C 286.5,315.835 286.333,281.168 286.5,246.5 Z M 412.5,246.5 C 420.833,246.5 429.167,246.5 437.5,246.5C 437.5,251.5 437.5,256.5 437.5,261.5C 429.167,261.5 420.833,261.5 412.5,261.5C 412.5,256.5 412.5,251.5 412.5,246.5 Z M 73.5,274.5 C 81.8333,274.5 90.1667,274.5 98.5,274.5C 98.5,279.833 98.5,285.167 98.5,290.5C 90.1667,290.5 81.8333,290.5 73.5,290.5C 73.5,285.167 73.5,279.833 73.5,274.5 Z M 412.5,274.5 C 420.833,274.5 429.167,274.5 437.5,274.5C 437.5,279.833 437.5,285.167 437.5,290.5C 429.167,290.5 420.833,290.5 412.5,290.5C 412.5,285.167 412.5,279.833 412.5,274.5 Z M 164.5,293.5 C 176.496,292.997 182.329,298.664 182,310.5C 177.071,322.014 169.238,324.514 158.5,318C 151.619,307.582 153.619,299.416 164.5,293.5 Z M 340.5,293.5 C 354.818,293.646 360.318,300.646 357,314.5C 351.443,321.799 344.61,323.299 336.5,319C 327.724,308.931 329.058,300.431 340.5,293.5 Z M 73.5,303.5 C 81.8333,303.5 90.1667,303.5 98.5,303.5C 98.6661,309.176 98.4994,314.843 98,320.5C 90.9986,314.249 82.8319,310.583 73.5,309.5C 73.5,307.5 73.5,305.5 73.5,303.5 Z M 412.5,303.5 C 420.833,303.5 429.167,303.5 437.5,303.5C 437.739,305.467 437.406,307.301 436.5,309C 427.658,310.838 419.824,314.671 413,320.5C 412.501,314.843 412.334,309.176 412.5,303.5 Z M 57.5,322.5 C 58.5,322.5 59.5,322.5 60.5,322.5C 60.83,329.2 60.4967,335.866 59.5,342.5C 58.1667,343.167 57.1667,344.167 56.5,345.5C 49.8665,346.497 43.1998,346.83 36.5,346.5C 39.2894,334.717 46.2894,326.717 57.5,322.5 Z M 73.5,322.5 C 86.5,325.5 94.5,333.5 97.5,346.5C 91.1579,346.666 84.8246,346.5 78.5,346C 77.3333,344.167 75.8333,342.667 74,341.5C 73.5005,335.175 73.3338,328.842 73.5,322.5 Z M 434.5,322.5 C 435.82,325.428 436.486,328.761 436.5,332.5C 436.927,337.565 435.594,341.898 432.5,345.5C 426.202,346.496 419.868,346.83 413.5,346.5C 416.262,334.741 423.262,326.741 434.5,322.5 Z M 449.5,322.5 C 462.585,324.915 470.918,332.582 474.5,345.5C 467.833,346.833 461.167,346.833 454.5,345.5C 453.636,343.803 452.303,342.637 450.5,342C 449.522,335.59 449.189,329.09 449.5,322.5 Z M 36.5,359.5 C 42.8421,359.334 49.1754,359.5 55.5,360C 57,361.5 58.5,363 60,364.5C 60.8306,370.859 60.6639,377.193 59.5,383.5C 47.046,380.047 39.3793,372.047 36.5,359.5 Z M 78.5,359.5 C 84.8333,359.5 91.1667,359.5 97.5,359.5C 94.6302,372.038 86.9636,380.038 74.5,383.5C 73.1667,377.167 73.1667,370.833 74.5,364.5C 76.6114,363.395 77.9447,361.729 78.5,359.5 Z M 413.5,359.5 C 419.868,359.17 426.202,359.504 432.5,360.5C 433.48,361.981 434.647,363.315 436,364.5C 436.831,370.859 436.664,377.193 435.5,383.5C 423.606,379.609 416.272,371.609 413.5,359.5 Z M 454.5,359.5 C 461.2,359.17 467.866,359.503 474.5,360.5C 470.279,372.724 461.946,380.391 449.5,383.5C 449.17,377.132 449.504,370.798 450.5,364.5C 452.611,363.395 453.945,361.729 454.5,359.5 Z M 240.5,493.5 C 224.197,487.85 209.197,479.85 195.5,469.5C 206.405,449.26 217.739,429.26 229.5,409.5C 238.016,421.064 249.35,425.23 263.5,422C 273.448,419.051 280.615,412.884 285,403.5C 299.631,426.599 314.131,449.766 328.5,473C 311.188,484.217 292.188,490.883 271.5,493C 261.172,493.5 250.839,493.666 240.5,493.5 Z"/></g>
<g><path style="opacity:0.997" fill="#d3e0f3" d="M 111.5,246.5 C 119.5,246.5 127.5,246.5 135.5,246.5C 135.5,253.167 135.5,259.833 135.5,266.5C 131.523,271.32 127.69,276.32 124,281.5C 120.106,289.855 122.606,293.355 131.5,292C 132.977,290.188 134.31,288.355 135.5,286.5C 135.177,313.518 135.677,340.518 137,367.5C 141.766,404.37 157.6,435.37 184.5,460.5C 183.571,465.025 181.571,469.025 178.5,472.5C 138.659,445.841 116.492,408.508 112,360.5C 111.5,322.501 111.333,284.501 111.5,246.5 Z"/></g>
<g><path style="opacity:0.959" fill="#0735c9" d="M 135.5,286.5 C 134.31,288.355 132.977,290.188 131.5,292C 122.606,293.355 120.106,289.855 124,281.5C 127.69,276.32 131.523,271.32 135.5,266.5C 139.34,264.189 143.34,262.023 147.5,260C 172.031,251.508 192.865,257.008 210,276.5C 212.464,279.593 213.964,283.093 214.5,287C 213.774,292.207 210.774,294.207 205.5,293C 202.301,289.434 199.467,285.6 197,281.5C 193.833,279 190.667,276.5 187.5,274C 166.867,264.659 149.533,268.825 135.5,286.5 Z"/></g>
<g><path style="opacity:0.947" fill="#0634c9" d="M 342.5,255.5 C 364.547,255.597 380.714,265.264 391,284.5C 391.55,292.484 388.05,294.984 380.5,292C 367.322,270.163 348.989,264.163 325.5,274C 318.116,278.384 312.449,284.384 308.5,292C 302.793,294.977 299.126,293.31 297.5,287C 302.007,275.158 310.007,266.491 321.5,261C 328.346,258.04 335.346,256.207 342.5,255.5 Z"/></g>
<g><path style="opacity:0.961" fill="#0634c9" d="M 162.5,280.5 C 187.077,280.241 197.577,292.241 194,316.5C 186.037,333.38 173.204,338.547 155.5,332C 141.84,322.678 138.007,310.178 144,294.5C 148.371,287.275 154.538,282.608 162.5,280.5 Z M 164.5,293.5 C 153.619,299.416 151.619,307.582 158.5,318C 169.238,324.514 177.071,322.014 182,310.5C 182.329,298.664 176.496,292.997 164.5,293.5 Z"/></g>
<g><path style="opacity:0.948" fill="#0634c9" d="M 338.5,280.5 C 361.819,279.985 372.653,291.318 371,314.5C 365.233,330.137 354.067,336.637 337.5,334C 322.305,328.455 315.805,317.622 318,301.5C 321.016,290.652 327.849,283.652 338.5,280.5 Z M 340.5,293.5 C 329.058,300.431 327.724,308.931 336.5,319C 344.61,323.299 351.443,321.799 357,314.5C 360.318,300.646 354.818,293.646 340.5,293.5 Z"/></g>
<g><path style="opacity:0.901" fill="#0634c9" d="M 47.5,330.5 C 53.0148,329.419 56.3482,331.586 57.5,337C 54.8662,343.866 50.6995,345.033 45,340.5C 43.8634,336.537 44.6967,333.204 47.5,330.5 Z"/></g>
<g><path style="opacity:0.892" fill="#0534c9" d="M 79.5,330.5 C 88.7446,329.899 91.4113,333.732 87.5,342C 80.3424,344.501 76.8424,342.001 77,334.5C 77.6622,333.016 78.4955,331.683 79.5,330.5 Z"/></g>
<g><path style="opacity:0.9" fill="#0534c8" d="M 424.5,330.5 C 430.077,329.444 433.411,331.611 434.5,337C 431.844,343.871 427.677,345.038 422,340.5C 420.861,336.579 421.695,333.246 424.5,330.5 Z"/></g>
<g><path style="opacity:0.933" fill="#0635c8" d="M 457.5,330.5 C 466.306,330.464 468.639,334.297 464.5,342C 458.761,344.464 455.094,342.631 453.5,336.5C 453.866,333.744 455.2,331.744 457.5,330.5 Z"/></g>
<g><path style="opacity:0.893" fill="#0634ca" d="M 48.5,362.5 C 56.1601,360.996 59.3268,363.996 58,371.5C 54,375.5 50,375.5 46,371.5C 44.9271,367.9 45.7605,364.9 48.5,362.5 Z"/></g>
<g><path style="opacity:0.937" fill="#0635c8" d="M 79.5,362.5 C 88.8413,361.541 91.5079,365.208 87.5,373.5C 81.7519,376.039 78.0852,374.372 76.5,368.5C 76.9837,366.199 77.9837,364.199 79.5,362.5 Z"/></g>
<g><path style="opacity:0.932" fill="#0635c9" d="M 423.5,362.5 C 429.31,360.97 432.977,362.97 434.5,368.5C 432.679,374.401 428.846,376.068 423,373.5C 420.866,369.647 421.033,365.98 423.5,362.5 Z"/></g>
<g><path style="opacity:0.904" fill="#0534c9" d="M 454.5,362.5 C 460.318,360.969 463.984,362.969 465.5,368.5C 464.349,374.091 461.016,375.925 455.5,374C 451.849,370.56 451.516,366.727 454.5,362.5 Z"/></g>
<g><path style="opacity:0.99" fill="#0634c9" d="M 225.5,445.5 C 246.169,445.333 266.836,445.5 287.5,446C 291.5,449.667 291.5,453.333 287.5,457C 266.833,457.667 246.167,457.667 225.5,457C 222.875,453.168 222.875,449.335 225.5,445.5 Z"/></g>
<g><path style="opacity:0.967" fill="#cddbf2" d="M 195.5,469.5 C 209.197,479.85 224.197,487.85 240.5,493.5C 222.352,492.061 205.352,486.895 189.5,478C 190.908,474.661 192.908,471.827 195.5,469.5 Z"/></g>
</svg>
